<svg width="24" height="25" viewBox="0 0 24 25" fill="none" xmlns="http://www.w3.org/2000/svg">
<path d="M13.9804 6.43874C14.4193 5.99722 15.0136 5.75 15.6323 5.75C16.2511 5.75 16.8454 5.99722 17.2843 6.43874C17.7233 6.88041 17.9707 7.48039 17.9707 8.10693C17.9707 8.73347 17.7233 9.33345 17.2843 9.77512L10.1849 16.9093C10.0356 17.0595 9.83406 17.1431 9.62488 17.1431C9.4157 17.1431 9.21418 17.0595 9.06488 16.9093C8.91544 16.759 8.83068 16.5541 8.83068 16.3396C8.83068 16.1251 8.91544 15.9202 9.06488 15.7699L15.6161 9.18716C15.9082 8.89356 15.9071 8.41869 15.6135 8.1265C15.3199 7.83431 14.845 7.83545 14.5529 8.12905L8.00106 14.7124C7.57131 15.1447 7.33068 15.7301 7.33068 16.3396C7.33068 16.9491 7.57131 17.5345 8.00106 17.9668C8.43095 18.3993 9.01497 18.6431 9.62488 18.6431C10.2347 18.6431 10.8188 18.3991 11.2487 17.9668L18.3481 10.8326C19.0674 10.1089 19.4707 9.12841 19.4707 8.10693C19.4707 7.08545 19.0674 6.10491 18.3481 5.38126C17.6286 4.65745 16.6518 4.25 15.6323 4.25C14.6129 4.25 13.6361 4.65745 12.9166 5.38126L5.82494 12.5155C4.81601 13.5305 4.25 14.9061 4.25 16.3396C4.25 17.7731 4.81601 19.1488 5.82494 20.1637C6.83403 21.1789 8.20359 21.75 9.6326 21.75C11.0616 21.75 12.4312 21.1789 13.4403 20.1637L20.5319 13.0295C20.8239 12.7358 20.8225 12.2609 20.5287 11.9689C20.235 11.6769 19.7601 11.6783 19.4681 11.9721L12.3764 19.1063C11.648 19.8391 10.6609 20.25 9.6326 20.25C8.60432 20.25 7.61725 19.8391 6.88877 19.1063C6.16014 18.3733 5.75 17.3781 5.75 16.3396C5.75 15.3011 6.16014 14.3059 6.88877 13.5729L13.9804 6.43874Z" fill="#2F2F2F"/>
</svg>
