<svg width="18" height="17" viewBox="0 0 18 17" fill="none" xmlns="http://www.w3.org/2000/svg">
<path fill-rule="evenodd" clip-rule="evenodd" d="M9 5C6.92893 5 5.25 6.67893 5.25 8.75C5.25 10.8211 6.92893 12.5 9 12.5C11.0711 12.5 12.75 10.8211 12.75 8.75C12.75 6.67893 11.0711 5 9 5ZM6.75 8.75C6.75 7.50736 7.75736 6.5 9 6.5C10.2426 6.5 11.25 7.50736 11.25 8.75C11.25 9.99264 10.2426 11 9 11C7.75736 11 6.75 9.99264 6.75 8.75Z" fill="#2F2F2F"/>
<path fill-rule="evenodd" clip-rule="evenodd" d="M5.91406 0.247314C5.23202 0.247314 4.60856 0.63417 4.30378 1.24649L3.84349 2.17125C3.80002 2.25858 3.71117 2.31382 3.6139 2.31399L2.82925 2.31539C1.27226 2.31818 0.0068697 3.5899 0.00552572 5.15256L0 13.4081C0 14.974 1.26776 16.2473 2.82864 16.2473H15.1714C16.732 16.2473 18 14.9748 18 13.4086V5.15051C18 3.58436 16.732 2.31184 15.1714 2.31184H14.3855C14.2882 2.31184 14.1991 2.25664 14.1556 2.16923L13.6952 1.24556C13.3902 0.633751 12.767 0.247314 12.0853 0.247314H5.91406ZM5.68402 1.9384C5.72756 1.85092 5.81663 1.79566 5.91406 1.79566H12.0853C12.1827 1.79566 12.2717 1.85086 12.3153 1.93827L12.7757 2.86194C13.0807 3.47375 13.7039 3.86019 14.3855 3.86019H15.1714C15.8799 3.86019 16.4571 4.43948 16.4571 5.15053V13.4086C16.4571 14.1197 15.8799 14.699 15.1714 14.699H2.82864C2.12042 14.699 1.54298 14.1193 1.54286 13.4081L1.54838 5.15364C1.54905 4.44419 2.12592 3.865 2.83201 3.86373L3.61665 3.86233C4.29753 3.86112 4.91946 3.47444 5.22373 2.86316L5.68402 1.9384Z" fill="#2F2F2F"/>
</svg>
