<svg width="24" height="25" viewBox="0 0 24 25" fill="none" xmlns="http://www.w3.org/2000/svg">
<path d="M5 15.5027C4.58579 15.5027 4.25 15.8385 4.25 16.2527C4.25 16.6669 4.58579 17.0027 5 17.0027H6.5C6.91421 17.0027 7.25 16.6669 7.25 16.2527C7.25 15.8385 6.91421 15.5027 6.5 15.5027H5Z" fill="#2F2F2F"/>
<path d="M8.25 16.2527C8.25 15.8385 8.58579 15.5027 9 15.5027H10.5C10.9142 15.5027 11.25 15.8385 11.25 16.2527C11.25 16.6669 10.9142 17.0027 10.5 17.0027H9C8.58579 17.0027 8.25 16.6669 8.25 16.2527Z" fill="#2F2F2F"/>
<path d="M13 15.5027C12.5858 15.5027 12.25 15.8385 12.25 16.2527C12.25 16.6669 12.5858 17.0027 13 17.0027H14.5C14.9142 17.0027 15.25 16.6669 15.25 16.2527C15.25 15.8385 14.9142 15.5027 14.5 15.5027H13Z" fill="#2F2F2F"/>
<path fill-rule="evenodd" clip-rule="evenodd" d="M3 5.25269C1.89543 5.25269 1 6.14812 1 7.25269V18.2527C1 19.3573 1.89543 20.2527 3 20.2527H21C22.1046 20.2527 23 19.3573 23 18.2527V7.25269C23 6.14812 22.1046 5.25269 21 5.25269H3ZM21.5 9.00537H2.5V7.25269C2.5 6.97654 2.72386 6.75269 3 6.75269H21C21.2761 6.75269 21.5 6.97654 21.5 7.25269V9.00537ZM21.5 18.2527V10.5054H2.5V18.2527C2.5 18.5288 2.72386 18.7527 3 18.7527H21C21.2761 18.7527 21.5 18.5288 21.5 18.2527Z" fill="#2F2F2F"/>
</svg>
