<svg width="24" height="25" viewBox="0 0 24 25" fill="none" xmlns="http://www.w3.org/2000/svg">
<path d="M15.7657 10.2502C16.0781 10.5837 16.0781 11.1245 15.7657 11.4581L11.499 16.0135C11.1866 16.3471 10.6801 16.3471 10.3676 16.0135L8.23431 13.7358C7.9219 13.4022 7.9219 12.8614 8.23431 12.5279C8.54673 12.1943 9.05327 12.1943 9.36568 12.5279L10.9333 14.2016L14.6343 10.2502C14.9467 9.91661 15.4533 9.91661 15.7657 10.2502Z" fill="#2F2F2F"/>
<path fill-rule="evenodd" clip-rule="evenodd" d="M12 22.7527C17.5228 22.7527 22 18.2755 22 12.7527C22 7.22984 17.5228 2.75269 12 2.75269C6.47715 2.75269 2 7.22984 2 12.7527C2 18.2755 6.47715 22.7527 12 22.7527ZM12 21.2527C16.6944 21.2527 20.5 17.4471 20.5 12.7527C20.5 8.05827 16.6944 4.25269 12 4.25269C7.30558 4.25269 3.5 8.05827 3.5 12.7527C3.5 17.4471 7.30558 21.2527 12 21.2527Z" fill="#2F2F2F"/>
</svg>
