<svg width="24" height="25" viewBox="0 0 24 25" fill="none" xmlns="http://www.w3.org/2000/svg">
<path d="M17.6569 8.65627C18.0474 8.26575 18.0474 7.63258 17.6569 7.24206C17.2663 6.85153 16.6332 6.85153 16.2426 7.24206L12 11.4847L7.75736 7.24206C7.36684 6.85153 6.73367 6.85153 6.34315 7.24206C5.95262 7.63258 5.95262 8.26575 6.34315 8.65627L10.5858 12.8989L6.34315 17.1416C5.95262 17.5321 5.95262 18.1652 6.34315 18.5558C6.73367 18.9463 7.36683 18.9463 7.75736 18.5558L12 14.3131L16.2426 18.5558C16.6332 18.9463 17.2663 18.9463 17.6569 18.5558C18.0474 18.1652 18.0474 17.5321 17.6569 17.1416L13.4142 12.8989L17.6569 8.65627Z" fill="#2F2F2F"/>
</svg>
