<svg width="24" height="25" viewBox="0 0 24 25" fill="none" xmlns="http://www.w3.org/2000/svg">
<path fill-rule="evenodd" clip-rule="evenodd" d="M4.99896 5.75164C5.15836 5.59224 5.37457 5.50269 5.6 5.50269H12.8C13.0254 5.50269 13.2416 5.59224 13.401 5.75164C13.5604 5.91105 13.65 6.12725 13.65 6.35269V7.15269C13.65 7.5669 13.9858 7.90269 14.4 7.90269C14.8142 7.90269 15.15 7.5669 15.15 7.15269V6.35269C15.15 5.72943 14.9024 5.13169 14.4617 4.69098C14.021 4.25027 13.4233 4.00269 12.8 4.00269H5.6C4.97674 4.00269 4.37901 4.25027 3.9383 4.69098C3.49759 5.1317 3.25 5.72943 3.25 6.35269V13.5527C3.25 14.1759 3.49759 14.7737 3.9383 15.2144C4.37901 15.6551 4.97674 15.9027 5.6 15.9027H6.4C6.81421 15.9027 7.15 15.5669 7.15 15.1527C7.15 14.7385 6.81421 14.4027 6.4 14.4027H5.6C5.37457 14.4027 5.15837 14.3131 4.99896 14.1537C4.83955 13.9943 4.75 13.7781 4.75 13.5527V6.35269C4.75 6.12725 4.83955 5.91105 4.99896 5.75164ZM10.3501 11.9527C10.3501 11.4832 10.7307 11.1027 11.2001 11.1027H18.4001C18.8695 11.1027 19.2501 11.4832 19.2501 11.9527V19.1527C19.2501 19.6221 18.8695 20.0027 18.4001 20.0027H11.2001C10.7307 20.0027 10.3501 19.6221 10.3501 19.1527V11.9527ZM11.2001 9.60266C9.90223 9.60266 8.8501 10.6548 8.8501 11.9527V19.1527C8.8501 20.4505 9.90223 21.5027 11.2001 21.5027H18.4001C19.698 21.5027 20.7501 20.4505 20.7501 19.1527V11.9527C20.7501 10.6548 19.698 9.60266 18.4001 9.60266H11.2001Z" fill="#2F2F2F"/>
</svg>
