<svg width="24" height="25" viewBox="0 0 24 25" fill="none" xmlns="http://www.w3.org/2000/svg">
<path d="M12.7994 5.55269C12.7994 5.11086 12.4413 4.75269 11.9994 4.75269C11.5576 4.75269 11.1994 5.11086 11.1994 5.55269V13.2214L8.56513 10.5871C8.25271 10.2746 7.74618 10.2746 7.43376 10.5871C7.12134 10.8995 7.12134 11.406 7.43376 11.7184L11.4338 15.7184C11.5381 15.8228 11.6641 15.8923 11.7972 15.9269C11.8145 15.9314 11.832 15.9353 11.8497 15.9387C11.9478 15.9573 12.0486 15.9574 12.1467 15.9392C12.1653 15.9357 12.1836 15.9316 12.2017 15.9269C12.3348 15.8923 12.4608 15.8228 12.5651 15.7184L16.5651 11.7184C16.8776 11.406 16.8776 10.8995 16.5651 10.5871C16.2527 10.2746 15.7462 10.2746 15.4338 10.5871L12.7994 13.2214V5.55269Z" fill="#2F2F2F"/>
<path d="M4.8 14.3528C5.24183 14.3528 5.6 14.7109 5.6 15.1528V18.3528C5.6 18.5649 5.68429 18.7684 5.83431 18.9184C5.98434 19.0685 6.18783 19.1528 6.4 19.1528H17.6C17.8122 19.1528 18.0157 19.0685 18.1657 18.9184C18.3157 18.7684 18.4 18.5649 18.4 18.3528V15.1528C18.4 14.7109 18.7582 14.3528 19.2 14.3528C19.6418 14.3528 20 14.7109 20 15.1528V18.3528C20 18.9893 19.7471 19.5997 19.2971 20.0498C18.847 20.4999 18.2365 20.7528 17.6 20.7528H6.4C5.76348 20.7528 5.15303 20.4999 4.70294 20.0498C4.25286 19.5997 4 18.9893 4 18.3528V15.1528C4 14.7109 4.35817 14.3528 4.8 14.3528Z" fill="#2F2F2F"/>
</svg>
