<svg width="24" height="25" viewBox="0 0 24 25" fill="none" xmlns="http://www.w3.org/2000/svg">
<path d="M12.7496 6C12.7496 5.58579 12.4138 5.25 11.9996 5.25C11.5854 5.25 11.2496 5.58579 11.2496 6V13.9843L10.1979 13.0957C9.88156 12.8283 9.40836 12.8681 9.14101 13.1844C8.87366 13.5008 8.91341 13.974 9.22979 14.2414L11.5155 16.1729C11.795 16.409 12.2042 16.409 12.4837 16.1729L14.7694 14.2414C15.0858 13.974 15.1255 13.5008 14.8582 13.1844C14.5908 12.8681 14.1176 12.8283 13.8012 13.0957L12.7496 13.9843V6Z" fill="#2F2F2F"/>
<path d="M4.75 10.5999C4.75 10.4618 4.86193 10.3499 5 10.3499H10V8.84985H5C4.0335 8.84985 3.25 9.63336 3.25 10.5999V19.3999C3.25 20.3664 4.0335 21.1499 5 21.1499H19C19.9665 21.1499 20.75 20.3663 20.75 19.3999V10.5999C20.75 9.63336 19.9665 8.84985 19 8.84985H14V10.3499H19C19.1381 10.3499 19.25 10.4618 19.25 10.5999V19.3999C19.25 19.5379 19.1381 19.6499 19 19.6499H5C4.86193 19.6499 4.75 19.5379 4.75 19.3999V10.5999Z" fill="#2F2F2F"/>
</svg>
