<svg width="24" height="25" viewBox="0 0 24 25" fill="none" xmlns="http://www.w3.org/2000/svg">
<path fill-rule="evenodd" clip-rule="evenodd" d="M18.3136 4.25C17.6673 4.25 17.0475 4.50674 16.5905 4.96373L9.03635 12.5179C8.94023 12.614 8.87204 12.7345 8.83907 12.8663L8.04389 16.047C7.98 16.3026 8.05488 16.573 8.24117 16.7593C8.42746 16.9456 8.69782 17.0204 8.9534 16.9565L12.1341 16.1614C12.266 16.1284 12.3864 16.0602 12.4825 15.9641L20.0367 8.40992C20.4937 7.95293 20.7504 7.33311 20.7504 6.68682C20.7504 6.04054 20.4937 5.42072 20.0367 4.96373C19.5797 4.50674 18.9599 4.25 18.3136 4.25ZM17.6512 6.02439C17.8269 5.8487 18.0652 5.75 18.3136 5.75C18.5621 5.75 18.8004 5.8487 18.9761 6.02439C19.1517 6.20008 19.2504 6.43836 19.2504 6.68682C19.2504 6.93528 19.1517 7.17357 18.9761 7.34926L11.5688 14.7565L9.80228 15.1982L10.2439 13.4317L17.6512 6.02439Z" fill="#2F2F2F"/>
<path d="M5.59035 5.93689C4.96965 5.93689 4.37437 6.18346 3.93547 6.62236C3.49657 7.06126 3.25 7.65654 3.25 8.27724V19.4097C3.25 20.0304 3.49657 20.6257 3.93547 21.0646C4.37437 21.5035 4.96965 21.7501 5.59035 21.7501H16.7228C17.3435 21.7501 17.9388 21.5035 18.3777 21.0646C18.8166 20.6257 19.0632 20.0304 19.0632 19.4097V13.8435C19.0632 13.4293 18.7274 13.0935 18.3132 13.0935C17.899 13.0935 17.5632 13.4293 17.5632 13.8435V19.4097C17.5632 19.6326 17.4746 19.8463 17.317 20.0039C17.1594 20.1615 16.9457 20.2501 16.7228 20.2501H5.59035C5.36748 20.2501 5.15373 20.1615 4.99613 20.0039C4.83854 19.8463 4.75 19.6326 4.75 19.4097V8.27724C4.75 8.05437 4.83854 7.84062 4.99613 7.68302C5.15373 7.52543 5.36748 7.43689 5.59035 7.43689H11.1566C11.5708 7.43689 11.9066 7.1011 11.9066 6.68689C11.9066 6.27268 11.5708 5.93689 11.1566 5.93689H5.59035Z" fill="#2F2F2F"/>
</svg>
