<svg width="24" height="25" viewBox="0 0 24 25" fill="none" xmlns="http://www.w3.org/2000/svg">
<path d="M6.25 9.50269C6.25 9.08847 6.58579 8.75269 7 8.75269H17C17.4142 8.75269 17.75 9.08847 17.75 9.50269C17.75 9.9169 17.4142 10.2527 17 10.2527H7C6.58579 10.2527 6.25 9.9169 6.25 9.50269Z" fill="#2F2F2F"/>
<path d="M7 12.5027C6.58579 12.5027 6.25 12.8385 6.25 13.2527C6.25 13.6669 6.58579 14.0027 7 14.0027H13C13.4142 14.0027 13.75 13.6669 13.75 13.2527C13.75 12.8385 13.4142 12.5027 13 12.5027H7Z" fill="#2F2F2F"/>
<path fill-rule="evenodd" clip-rule="evenodd" d="M2.25 6.75269C2.25 5.51004 3.25736 4.50269 4.5 4.50269H19.5C20.7426 4.50269 21.75 5.51004 21.75 6.75269V15.7527C21.75 16.9953 20.7426 18.0027 19.5 18.0027H7.62132C7.42241 18.0027 7.23164 18.0817 7.09099 18.2224L4.81066 20.5027C3.86571 21.4476 2.25 20.7784 2.25 19.442V6.75269ZM4.5 6.00269C4.08579 6.00269 3.75 6.33847 3.75 6.75269V19.442L6.03033 17.1617C6.45229 16.7397 7.02458 16.5027 7.62132 16.5027H19.5C19.9142 16.5027 20.25 16.1669 20.25 15.7527V6.75269C20.25 6.33847 19.9142 6.00269 19.5 6.00269H4.5Z" fill="#2F2F2F"/>
</svg>
