<svg width="24" height="25" viewBox="0 0 24 25" fill="none" xmlns="http://www.w3.org/2000/svg">
<path fill-rule="evenodd" clip-rule="evenodd" d="M11.3541 7.74568C11.6839 6.17931 13.1258 5 14.8546 5C16.5836 5 18.0256 6.17951 18.3552 7.74608C18.3792 7.74375 18.4035 7.74255 18.4281 7.74255H21.2852C21.6797 7.74255 21.9995 8.04956 21.9995 8.42827C21.9995 8.80698 21.6797 9.11398 21.2852 9.11398H18.4281C18.4035 9.11398 18.3793 9.11279 18.3553 9.11047C18.026 10.6773 16.5838 11.8572 14.8546 11.8572C13.1256 11.8572 11.6835 10.6775 11.354 9.11087C11.3314 9.11293 11.3086 9.11398 11.2855 9.11398H2.71427C2.31979 9.11398 2 8.80698 2 8.42827C2 8.04956 2.31979 7.74255 2.71427 7.74255H11.2855C11.3086 7.74255 11.3315 7.74361 11.3541 7.74568ZM14.8546 6.37143C13.6712 6.37143 12.7118 7.29245 12.7118 8.42858C12.7118 9.56471 13.6712 10.4857 14.8546 10.4857C16.0381 10.4857 16.9974 9.56471 16.9974 8.42858C16.9974 7.29245 16.0381 6.37143 14.8546 6.37143Z" fill="#2F2F2F"/>
<path fill-rule="evenodd" clip-rule="evenodd" d="M12.6461 16.8887C12.3163 15.3223 10.8744 14.1429 9.14555 14.1429C7.41661 14.1429 5.97462 15.3224 5.64499 16.889C5.62127 16.8867 5.5972 16.8855 5.57285 16.8855H2.71579C2.32131 16.8855 2.00152 17.1925 2.00152 17.5712C2.00152 17.9499 2.32131 18.2569 2.71579 18.2569H5.57285C5.59716 18.2569 5.62118 18.2558 5.64487 18.2535C5.97425 19.8203 7.41639 21.0001 9.14555 21.0001C10.8746 21.0001 12.3167 19.8204 12.6462 18.2537C12.669 18.2558 12.6921 18.2569 12.7155 18.2569H21.2867C21.6812 18.2569 22.001 17.9499 22.001 17.5712C22.001 17.1925 21.6812 16.8855 21.2867 16.8855H12.7155C12.6921 16.8855 12.6689 16.8866 12.6461 16.8887ZM9.14555 15.5144C10.329 15.5144 11.2884 16.4354 11.2884 17.5715C11.2884 18.7077 10.329 19.6287 9.14555 19.6287C7.96212 19.6287 7.00275 18.7077 7.00275 17.5715C7.00275 16.4354 7.96212 15.5144 9.14555 15.5144Z" fill="#2F2F2F"/>
</svg>
