<svg width="24" height="25" viewBox="0 0 24 25" fill="none" xmlns="http://www.w3.org/2000/svg">
<path fill-rule="evenodd" clip-rule="evenodd" d="M3.53033 3.22236C3.23744 2.92946 2.76256 2.92946 2.46967 3.22236C2.17678 3.51525 2.17678 3.99012 2.46967 4.28302L6.01998 7.83333C4.52162 9.11104 3.27257 10.6586 2.33913 12.3981C2.22391 12.6129 2.2202 12.8702 2.32918 13.0882L3 12.7528C2.32918 13.0882 2.32979 13.0894 2.32979 13.0894L2.3307 13.0912L2.33344 13.0966L2.34255 13.1144C2.35023 13.1294 2.36114 13.1504 2.37524 13.177C2.40345 13.2303 2.44447 13.3063 2.49813 13.4017C2.60538 13.5924 2.76345 13.8613 2.97082 14.1824C3.38465 14.8231 3.99973 15.6793 4.80512 16.5384C6.40222 18.242 8.83673 20.0483 12 20.0483L12.0123 20.0481C13.7103 20.0203 15.3611 19.5123 16.776 18.5894L20.4697 22.283C20.7626 22.5759 21.2374 22.5759 21.5303 22.283C21.8232 21.9901 21.8232 21.5152 21.5303 21.2224L3.53033 3.22236ZM4.23088 13.3686C4.07321 13.1244 3.94797 12.9152 3.85615 12.7554C4.69691 11.2889 5.78996 9.983 7.08431 8.89772L9.2528 11.0662C9.1611 11.2071 9.08041 11.3554 9.01164 11.5097C8.8365 11.9028 8.74232 12.3272 8.73473 12.7574C8.72713 13.1877 8.80628 13.6151 8.96746 14.0141C9.12863 14.4132 9.36852 14.7756 9.67282 15.0799C9.97712 15.3842 10.3396 15.6241 10.7386 15.7853C11.1376 15.9465 11.565 16.0256 11.9953 16.018C12.4256 16.0104 12.8499 15.9163 13.243 15.7411C13.3973 15.6723 13.5456 15.5917 13.6865 15.4999L15.6873 17.5007C14.5723 18.1623 13.3 18.5258 11.9939 18.5482C9.43271 18.5459 7.36933 17.0804 5.89943 15.5125C5.17073 14.7352 4.60967 13.9551 4.23088 13.3686ZM10.2345 12.7839C10.2382 12.5741 10.2806 12.3669 10.3594 12.1728L12.5799 14.3933C12.3858 14.4721 12.1786 14.5146 11.9688 14.5183C11.74 14.5223 11.5126 14.4802 11.3004 14.3945C11.0881 14.3087 10.8953 14.1811 10.7335 14.0193C10.5716 13.8574 10.444 13.6646 10.3583 13.4524C10.2726 13.2401 10.2305 13.0128 10.2345 12.7839Z" fill="black"/>
<path fill-rule="evenodd" clip-rule="evenodd" d="M21.6614 13.1063C21.7761 12.8918 21.7796 12.6349 21.6708 12.4173L21.6693 12.4143L21.6666 12.4089L21.6574 12.3911C21.6498 12.3761 21.6389 12.3551 21.6248 12.3285C21.5966 12.2752 21.5555 12.1992 21.5019 12.1038C21.3946 11.9131 21.2366 11.6442 21.0292 11.3231C20.6154 10.6824 20.0003 9.82615 19.1949 8.96707C17.5979 7.26365 15.1637 5.45764 12.0009 5.4573C11.3647 5.45587 10.7304 5.52839 10.1109 5.6734C9.84588 5.73543 9.63528 5.93615 9.56061 6.19786C9.48593 6.45958 9.55889 6.74121 9.75125 6.93375L18.7022 15.8928C18.8507 16.0415 19.0548 16.121 19.2648 16.1121C19.4747 16.1031 19.6713 16.0064 19.8066 15.8456C20.5185 14.9996 21.1402 14.0815 21.6614 13.1063ZM19.1688 14.2376L11.8957 6.95784C11.9298 6.95739 11.964 6.95721 11.9982 6.95729L12 6.9573C14.564 6.9573 16.6295 8.42383 18.1006 9.99298C18.8293 10.7703 19.3903 11.5504 19.7691 12.1369C19.927 12.3814 20.0524 12.5909 20.1443 12.7508C19.85 13.2662 19.5242 13.7627 19.1688 14.2376ZM21 12.7528L21.6708 12.4173C21.6708 12.4173 21.6708 12.4173 21 12.7528Z" fill="black"/>
</svg>
