<svg width="24" height="25" viewBox="0 0 24 25" fill="none" xmlns="http://www.w3.org/2000/svg">
<path d="M12.75 8.6988C12.75 8.28458 12.4142 7.9488 12 7.9488C11.5858 7.9488 11.25 8.28458 11.25 8.6988V13C11.25 13.4142 11.5858 13.75 12 13.75H16.25C16.6642 13.75 17 13.4142 17 13C17 12.5858 16.6642 12.25 16.25 12.25H12.75V8.6988Z" fill="#2F2F2F"/>
<path fill-rule="evenodd" clip-rule="evenodd" d="M12 3.25C6.61522 3.25 2.25 7.61522 2.25 13C2.25 18.3848 6.61522 22.75 12 22.75C17.3848 22.75 21.75 18.3848 21.75 13C21.75 7.61522 17.3848 3.25 12 3.25ZM3.75 13C3.75 8.44365 7.44365 4.75 12 4.75C16.5563 4.75 20.25 8.44365 20.25 13C20.25 17.5563 16.5563 21.25 12 21.25C7.44365 21.25 3.75 17.5563 3.75 13Z" fill="#2F2F2F"/>
</svg>
