<svg width="24" height="25" viewBox="0 0 24 25" fill="none" xmlns="http://www.w3.org/2000/svg">
<path fill-rule="evenodd" clip-rule="evenodd" d="M6.55556 5.00269C5.28223 5.00269 4.25 6.03492 4.25 7.30824V18.1971C4.25 19.4705 5.28223 20.5027 6.55556 20.5027H17.4444C18.7178 20.5027 19.75 19.4705 19.75 18.1971V7.30824C19.75 6.03492 18.7178 5.00269 17.4444 5.00269H6.55556ZM5.75 7.30824C5.75 6.86335 6.11066 6.50269 6.55556 6.50269H17.4444C17.8893 6.50269 18.25 6.86335 18.25 7.30824V13.2761L15.6406 10.6667C15.4999 10.526 15.3092 10.447 15.1102 10.447C14.9113 10.447 14.7206 10.526 14.5799 10.6667L6.28905 18.9576C5.97512 18.8475 5.75 18.5486 5.75 18.1971V7.30824ZM15.1102 12.2577L18.25 15.3974V18.1971C18.25 18.642 17.8893 19.0027 17.4444 19.0027H8.36524L15.1102 12.2577ZM9.27702 8.11389C8.21847 8.11389 7.36035 8.97201 7.36035 10.0306C7.36035 11.0891 8.21847 11.9472 9.27702 11.9472C10.3356 11.9472 11.1937 11.0891 11.1937 10.0306C11.1937 8.97201 10.3356 8.11389 9.27702 8.11389ZM8.86035 10.0306C8.86035 9.80044 9.0469 9.61389 9.27702 9.61389C9.50714 9.61389 9.69368 9.80044 9.69368 10.0306C9.69368 10.2607 9.50714 10.4472 9.27702 10.4472C9.0469 10.4472 8.86035 10.2607 8.86035 10.0306Z" fill="#2F2F2F"/>
</svg>
