<svg width="24" height="25" viewBox="0 0 24 25" fill="none" xmlns="http://www.w3.org/2000/svg">
<path d="M12.75 12.1182C12.75 11.704 12.4142 11.3682 12 11.3682C11.5858 11.3682 11.25 11.704 11.25 12.1182V17.25C11.25 17.6642 11.5858 18 12 18C12.4142 18 12.75 17.6642 12.75 17.25V12.1182Z" fill="#2F2F2F"/>
<path d="M12 9.75269C12.6904 9.75269 13.25 9.19304 13.25 8.50269C13.25 7.81233 12.6904 7.25269 12 7.25269C11.3096 7.25269 10.75 7.81233 10.75 8.50269C10.75 9.19304 11.3096 9.75269 12 9.75269Z" fill="#2F2F2F"/>
<path fill-rule="evenodd" clip-rule="evenodd" d="M22 12.7527C22 18.2755 17.5228 22.7527 12 22.7527C6.47715 22.7527 2 18.2755 2 12.7527C2 7.22984 6.47715 2.75269 12 2.75269C17.5228 2.75269 22 7.22984 22 12.7527ZM20.5 12.7527C20.5 17.4471 16.6944 21.2527 12 21.2527C7.30558 21.2527 3.5 17.4471 3.5 12.7527C3.5 8.05827 7.30558 4.25269 12 4.25269C16.6944 4.25269 20.5 8.05827 20.5 12.7527Z" fill="#2F2F2F"/>
</svg>
