<svg width="24" height="25" viewBox="0 0 24 25" fill="none" xmlns="http://www.w3.org/2000/svg">
<path d="M10.3529 9.42916C10.3529 10.0789 9.82622 10.6056 9.17647 10.6056C8.52672 10.6056 8 10.0789 8 9.42916C8 8.77941 8.52672 8.25269 9.17647 8.25269C9.82622 8.25269 10.3529 8.77941 10.3529 9.42916Z" fill="#2F2F2F"/>
<path d="M16 9.42916C16 10.0789 15.4733 10.6056 14.8235 10.6056C14.1738 10.6056 13.6471 10.0789 13.6471 9.42916C13.6471 8.77941 14.1738 8.25269 14.8235 8.25269C15.4733 8.25269 16 8.77941 16 9.42916Z" fill="#2F2F2F"/>
<path d="M9.06081 14.3969C9.36499 14.6407 9.80547 14.5836 10.112 14.3427C10.6323 13.934 11.2875 13.691 11.9998 13.691C12.7121 13.691 13.3673 13.934 13.8876 14.3427C14.1941 14.5836 14.6346 14.6407 14.9388 14.3969C15.243 14.153 15.2951 13.7038 15.0066 13.4415C14.2131 12.72 13.1578 12.2792 11.9998 12.2792C10.8418 12.2792 9.78647 12.72 8.99297 13.4415C8.70452 13.7038 8.75663 14.153 9.06081 14.3969Z" fill="#2F2F2F"/>
<path fill-rule="evenodd" clip-rule="evenodd" d="M4.5 4.50269C3.25736 4.50269 2.25 5.51004 2.25 6.75269V19.442C2.25 20.7784 3.86571 21.4476 4.81066 20.5027L7.09099 18.2224C7.23164 18.0817 7.42241 18.0027 7.62132 18.0027H19.5C20.7426 18.0027 21.75 16.9953 21.75 15.7527V6.75269C21.75 5.51004 20.7426 4.50269 19.5 4.50269H4.5ZM3.75 6.75269C3.75 6.33847 4.08579 6.00269 4.5 6.00269H19.5C19.9142 6.00269 20.25 6.33847 20.25 6.75269V15.7527C20.25 16.1669 19.9142 16.5027 19.5 16.5027H7.62132C7.02458 16.5027 6.45229 16.7397 6.03033 17.1617L3.75 19.442V6.75269Z" fill="#2F2F2F"/>
</svg>
