<svg width="24" height="25" viewBox="0 0 24 25" fill="none" xmlns="http://www.w3.org/2000/svg">
<path d="M4.25 7.75269C4.94036 7.75269 5.5 7.19304 5.5 6.50269C5.5 5.81233 4.94036 5.25269 4.25 5.25269C3.55964 5.25269 3 5.81233 3 6.50269C3 7.19304 3.55964 7.75269 4.25 7.75269Z" fill="#2F2F2F"/>
<path d="M7.77143 5.75269C7.34538 5.75269 7 6.10091 7 6.53046C7 6.96002 7.34538 7.30824 7.77143 7.30824H20.2286C20.6546 7.30824 21 6.96002 21 6.53046C21 6.10091 20.6546 5.75269 20.2286 5.75269H7.77143Z" fill="#2F2F2F"/>
<path d="M7.77143 18.1971C7.34538 18.1971 7 18.5454 7 18.9749C7 19.4045 7.34538 19.7527 7.77143 19.7527H20.2286C20.6546 19.7527 21 19.4045 21 18.9749C21 18.5454 20.6546 18.1971 20.2286 18.1971H7.77143Z" fill="#2F2F2F"/>
<path d="M7.6512 11.945C7.29101 11.945 6.99902 12.2933 6.99902 12.7228C6.99902 13.1524 7.29101 13.5006 7.6512 13.5006H20.3468C20.707 13.5006 20.999 13.1524 20.999 12.7228C20.999 12.2933 20.707 11.945 20.3468 11.945H7.6512Z" fill="#2F2F2F"/>
<path d="M5.5 19.0027C5.5 19.693 4.94036 20.2527 4.25 20.2527C3.55964 20.2527 3 19.693 3 19.0027C3 18.3123 3.55964 17.7527 4.25 17.7527C4.94036 17.7527 5.5 18.3123 5.5 19.0027Z" fill="#2F2F2F"/>
<path d="M4.25 14.0027C4.94036 14.0027 5.5 13.443 5.5 12.7527C5.5 12.0623 4.94036 11.5027 4.25 11.5027C3.55964 11.5027 3 12.0623 3 12.7527C3 13.443 3.55964 14.0027 4.25 14.0027Z" fill="#2F2F2F"/>
</svg>
