<svg width="24" height="25" viewBox="0 0 24 25" fill="none" xmlns="http://www.w3.org/2000/svg">
<path d="M3.77143 5.75269C3.34538 5.75269 3 6.10091 3 6.53046C3 6.96002 3.34538 7.30824 3.77143 7.30824H20.2286C20.6546 7.30824 21 6.96002 21 6.53046C21 6.10091 20.6546 5.75269 20.2286 5.75269H3.77143Z" fill="#2F2F2F"/>
<path d="M3.77143 18.1971C3.34538 18.1971 3 18.5454 3 18.9749C3 19.4045 3.34538 19.7527 3.77143 19.7527H20.2286C20.6546 19.7527 21 19.4045 21 18.9749C21 18.5454 20.6546 18.1971 20.2286 18.1971H3.77143Z" fill="#2F2F2F"/>
<path d="M5.99902 12.7228C5.99902 12.2933 6.29101 11.945 6.6512 11.945H17.3468C17.707 11.945 17.999 12.2933 17.999 12.7228C17.999 13.1524 17.707 13.5006 17.3468 13.5006H6.6512C6.29101 13.5006 5.99902 13.1524 5.99902 12.7228Z" fill="#2F2F2F"/>
</svg>
