<svg width="24" height="25" viewBox="0 0 24 25" fill="none" xmlns="http://www.w3.org/2000/svg">
<path fill-rule="evenodd" clip-rule="evenodd" d="M5 4.00269C4.0335 4.00269 3.25 4.78619 3.25 5.75269V9.75269C3.25 10.7192 4.0335 11.5027 5 11.5027H9C9.9665 11.5027 10.75 10.7192 10.75 9.75269V5.75269C10.75 4.78619 9.9665 4.00269 9 4.00269H5ZM4.75 5.75269C4.75 5.61461 4.86193 5.50269 5 5.50269H9C9.13807 5.50269 9.25 5.61461 9.25 5.75269V9.75269C9.25 9.89076 9.13807 10.0027 9 10.0027H5C4.86193 10.0027 4.75 9.89076 4.75 9.75269V5.75269Z" fill="#2F2F2F"/>
<path fill-rule="evenodd" clip-rule="evenodd" d="M5 14.0027C4.0335 14.0027 3.25 14.7862 3.25 15.7527V19.7527C3.25 20.7192 4.0335 21.5027 5 21.5027H9C9.9665 21.5027 10.75 20.7192 10.75 19.7527V15.7527C10.75 14.7862 9.9665 14.0027 9 14.0027H5ZM4.75 15.7527C4.75 15.6146 4.86193 15.5027 5 15.5027H9C9.13807 15.5027 9.25 15.6146 9.25 15.7527V19.7527C9.25 19.8908 9.13807 20.0027 9 20.0027H5C4.86193 20.0027 4.75 19.8908 4.75 19.7527V15.7527Z" fill="#2F2F2F"/>
<path fill-rule="evenodd" clip-rule="evenodd" d="M13.25 5.75269C13.25 4.78619 14.0335 4.00269 15 4.00269H19C19.9665 4.00269 20.75 4.78619 20.75 5.75269V9.75269C20.75 10.7192 19.9665 11.5027 19 11.5027H15C14.0335 11.5027 13.25 10.7192 13.25 9.75269V5.75269ZM15 5.50269C14.8619 5.50269 14.75 5.61461 14.75 5.75269V9.75269C14.75 9.89076 14.8619 10.0027 15 10.0027H19C19.1381 10.0027 19.25 9.89076 19.25 9.75269V5.75269C19.25 5.61461 19.1381 5.50269 19 5.50269H15Z" fill="#2F2F2F"/>
<path fill-rule="evenodd" clip-rule="evenodd" d="M15 14.0027C14.0335 14.0027 13.25 14.7862 13.25 15.7527V19.7527C13.25 20.7192 14.0335 21.5027 15 21.5027H19C19.9665 21.5027 20.75 20.7192 20.75 19.7527V15.7527C20.75 14.7862 19.9665 14.0027 19 14.0027H15ZM14.75 15.7527C14.75 15.6146 14.8619 15.5027 15 15.5027H19C19.1381 15.5027 19.25 15.6146 19.25 15.7527V19.7527C19.25 19.8908 19.1381 20.0027 19 20.0027H15C14.8619 20.0027 14.75 19.8908 14.75 19.7527V15.7527Z" fill="#2F2F2F"/>
</svg>
