<svg width="24" height="25" viewBox="0 0 24 25" fill="none" xmlns="http://www.w3.org/2000/svg">
<path fill-rule="evenodd" clip-rule="evenodd" d="M5.38232 12.0769C5.38232 11.6946 5.66904 11.3846 6.02274 11.3846H17.9773C18.331 11.3846 18.6177 11.6946 18.6177 12.0769V19.4615C18.6177 20.8635 17.5664 22 16.2695 22H7.73053C6.43364 22 5.38232 20.8635 5.38232 19.4615V12.0769ZM6.66316 12.7692V19.4615C6.66316 20.0988 7.14103 20.6154 7.73053 20.6154H16.2695C16.859 20.6154 17.3368 20.0988 17.3368 19.4615V12.7692H6.66316Z" fill="#2F2F2F"/>
<path fill-rule="evenodd" clip-rule="evenodd" d="M6.07873 4.78428C6.34879 4.29771 6.8352 4 7.3601 4H16.6399C17.1648 4 17.6512 4.29771 17.9213 4.78428L19.8462 8.2525C20.2731 9.02157 19.7606 10 18.931 10H5.06902C4.23936 10 3.7269 9.02157 4.15376 8.2525L6.07873 4.78428ZM7.3601 5.38462C7.28511 5.38462 7.21563 5.42715 7.17705 5.49666L5.44605 8.61538H18.5539L16.823 5.49665C16.7844 5.42715 16.7149 5.38462 16.6399 5.38462H7.3601Z" fill="#2F2F2F"/>
</svg>
