<svg width="24" height="25" viewBox="0 0 24 25" fill="none" xmlns="http://www.w3.org/2000/svg">
<path fill-rule="evenodd" clip-rule="evenodd" d="M7.13369 15.4956C6.83241 15.4956 6.6 15.2709 6.6 14.9879V10.1435C6.6 9.85216 6.83241 9.62742 7.13369 9.62742H9.28568C10.0432 9.62742 10.6371 9.84383 11.0245 10.2101C11.343 10.5264 11.5237 10.9592 11.5237 11.467V11.4836C11.5237 12.4159 10.9642 12.9819 10.1551 13.2233L11.3085 14.63C11.4118 14.7548 11.4807 14.863 11.4807 15.0212C11.4807 15.3042 11.2311 15.4956 10.9728 15.4956C10.7318 15.4956 10.5769 15.3874 10.4564 15.2293L8.99301 13.423H7.65878V14.9879C7.65878 15.2709 7.42636 15.4956 7.13369 15.4956ZM7.65878 10.5597V12.5157H9.2082C9.9657 12.5157 10.4477 12.1329 10.4477 11.5419V11.5252C10.4477 10.9009 9.98292 10.5597 9.1996 10.5597H7.65878Z" fill="#2F2F2F"/>
<path fill-rule="evenodd" clip-rule="evenodd" d="M13.2165 16.8274C12.9325 16.8274 12.7001 16.611 12.7001 16.328V11.5169C12.7001 11.2339 12.9239 11.0092 13.2165 11.0092C13.5092 11.0092 13.7416 11.2339 13.7416 11.5169V11.7916C14.0773 11.3338 14.5508 10.9675 15.2911 10.9675C16.3584 10.9675 17.4 11.7833 17.4 13.2482V13.2649C17.4 14.7215 16.367 15.5456 15.2911 15.5456C14.5336 15.5456 14.0601 15.1793 13.7416 14.7715V16.328C13.7416 16.611 13.5092 16.8274 13.2165 16.8274ZM13.7158 13.2649C13.7158 14.1056 14.3356 14.6716 15.0414 14.6716C15.7559 14.6716 16.3412 14.1305 16.3412 13.2649V13.2482C16.3412 12.3992 15.7473 11.8415 15.0414 11.8415C14.3356 11.8415 13.7158 12.4075 13.7158 13.2482V13.2649Z" fill="#2F2F2F"/>
<path fill-rule="evenodd" clip-rule="evenodd" d="M21 13C21 17.9706 16.9706 22 12 22C7.02944 22 3 17.9706 3 13C3 8.02944 7.02944 4 12 4C16.9706 4 21 8.02944 21 13ZM19.65 13C19.65 17.225 16.225 20.65 12 20.65C7.77502 20.65 4.35 17.225 4.35 13C4.35 8.77502 7.77502 5.35 12 5.35C16.225 5.35 19.65 8.77502 19.65 13Z" fill="#2F2F2F"/>
</svg>
