<svg width="24" height="25" viewBox="0 0 24 25" fill="none" xmlns="http://www.w3.org/2000/svg">
<path fill-rule="evenodd" clip-rule="evenodd" d="M2.75 4.25C2.33579 4.25 2 4.58579 2 5C2 5.41421 2.33579 5.75 2.75 5.75H5.04433L5.64539 8.75305C5.64868 8.77414 5.65285 8.79493 5.65786 8.81539L6.87266 14.8848C6.97354 15.3921 7.24957 15.8477 7.65246 16.1721C8.05344 16.4949 8.55466 16.6671 9.06919 16.6591H16.1254C16.6399 16.6671 17.1411 16.4949 17.5421 16.1721C17.9451 15.8476 18.2212 15.3918 18.322 14.8843L19.4867 8.77686C19.5286 8.5573 19.4704 8.3305 19.3279 8.15828C19.1854 7.98606 18.9735 7.88636 18.75 7.88636H7.00167L6.39451 4.85281C6.32435 4.50229 6.01656 4.25 5.65909 4.25H2.75ZM8.34381 14.5921L7.30189 9.38636H17.8435L16.8503 14.5943C16.8177 14.7556 16.7297 14.9004 16.6015 15.0036C16.4727 15.1073 16.3115 15.1624 16.1462 15.1592L16.1318 15.1591H9.06273L9.04836 15.1592C8.88303 15.1624 8.72186 15.1073 8.59306 15.0036C8.46426 14.8999 8.37603 14.7543 8.34381 14.5921Z" fill="#2F2F2F"/>
<path fill-rule="evenodd" clip-rule="evenodd" d="M7.09082 19.5455C7.09082 18.7296 7.75222 18.0682 8.56809 18.0682C9.38397 18.0682 10.0454 18.7296 10.0454 19.5455C10.0454 20.3614 9.38397 21.0228 8.56809 21.0228C7.75222 21.0228 7.09082 20.3614 7.09082 19.5455ZM8.58873 19.5546C8.59032 19.5508 8.59082 19.5455 8.59082 19.5455C8.59082 19.5455 8.59032 19.5402 8.58873 19.5364C8.58735 19.5332 8.58568 19.531 8.58416 19.5294L8.58213 19.5277L8.57968 19.5261L8.57717 19.5249C8.57341 19.5233 8.56809 19.5228 8.56809 19.5228C8.56809 19.5228 8.56278 19.5233 8.55902 19.5249C8.55575 19.5263 8.55353 19.5279 8.55202 19.5294C8.55051 19.531 8.54884 19.5332 8.54746 19.5364C8.54587 19.5402 8.54537 19.5455 8.54537 19.5455C8.54537 19.5455 8.54587 19.5508 8.54746 19.5546C8.54884 19.5578 8.55051 19.5601 8.55202 19.5616C8.55353 19.5631 8.55575 19.5648 8.55902 19.5661C8.56278 19.5677 8.56809 19.5682 8.56809 19.5682C8.56809 19.5682 8.57341 19.5677 8.57717 19.5661C8.58043 19.5648 8.58265 19.5631 8.58416 19.5616C8.58568 19.5601 8.58735 19.5578 8.58873 19.5546Z" fill="#2F2F2F"/>
<path fill-rule="evenodd" clip-rule="evenodd" d="M15.0908 19.5455C15.0908 18.7296 15.7522 18.0682 16.5681 18.0682C17.384 18.0682 18.0454 18.7296 18.0454 19.5455C18.0454 20.3614 17.384 21.0228 16.5681 21.0228C15.7522 21.0228 15.0908 20.3614 15.0908 19.5455ZM16.5887 19.5546C16.5903 19.5508 16.5908 19.5455 16.5908 19.5455C16.5908 19.5455 16.5903 19.5402 16.5887 19.5364C16.5873 19.5332 16.5857 19.531 16.5842 19.5294C16.5827 19.5279 16.5804 19.5263 16.5772 19.5249C16.5734 19.5233 16.5681 19.5228 16.5681 19.5228C16.5681 19.5228 16.5628 19.5233 16.559 19.5249C16.5558 19.5263 16.5535 19.5279 16.552 19.5294C16.5505 19.531 16.5488 19.5332 16.5475 19.5364L16.5461 19.5404C16.5456 19.5426 16.5454 19.5455 16.5454 19.5455C16.5454 19.5455 16.5459 19.5508 16.5475 19.5546C16.5488 19.5578 16.5505 19.5601 16.552 19.5616L16.5558 19.5645L16.559 19.5661C16.5628 19.5677 16.5681 19.5682 16.5681 19.5682L16.5698 19.5681L16.5726 19.5676L16.5772 19.5661C16.5804 19.5648 16.5827 19.5631 16.5842 19.5616C16.5857 19.5601 16.5873 19.5578 16.5887 19.5546Z" fill="#2F2F2F"/>
</svg>
