<svg width="24" height="25" viewBox="0 0 24 25" fill="none" xmlns="http://www.w3.org/2000/svg">
<path fill-rule="evenodd" clip-rule="evenodd" d="M4.64707 7.46147C5.96985 5.02186 8.64898 3.25 11.9988 3.25C15.4077 3.25 18.0858 5.06768 19.3874 7.53546C20.6898 10.0046 20.6047 13.1184 18.5256 15.6192L13.425 22.095C12.7419 22.9622 11.3788 22.9701 10.6857 22.1078L5.437 15.5782C3.37133 13.0151 3.31989 9.90921 4.64707 7.46147ZM5.96571 8.17645C4.90872 10.1259 4.94218 12.5739 6.60489 14.6369L11.8548 21.1681C11.8906 21.2125 11.9579 21.2505 12.0516 21.25C12.1454 21.2495 12.2121 21.2108 12.2467 21.1668L17.3536 14.6831L17.3666 14.6669C19.0336 12.6671 19.103 10.2115 18.0607 8.23525C17.0162 6.25494 14.846 4.75 11.9988 4.75C9.20122 4.75 7.02715 6.21883 5.96571 8.17645ZM11.9997 9.25C10.8027 9.25 9.86504 10.1912 9.86504 11.3125C9.86504 12.4338 10.8027 13.375 11.9997 13.375C13.1966 13.375 14.1343 12.4338 14.1343 11.3125C14.1343 10.1912 13.1966 9.25 11.9997 9.25ZM8.36504 11.3125C8.36504 9.3272 10.0103 7.75 11.9997 7.75C13.989 7.75 15.6343 9.3272 15.6343 11.3125C15.6343 13.2978 13.989 14.875 11.9997 14.875C10.0103 14.875 8.36504 13.2978 8.36504 11.3125Z" fill="#2F2F2F"/>
</svg>
