<svg width="24" height="25" viewBox="0 0 24 25" fill="none" xmlns="http://www.w3.org/2000/svg">
<path fill-rule="evenodd" clip-rule="evenodd" d="M3.25 7C3.25 5.48122 4.48122 4.25 6 4.25H18C19.5188 4.25 20.75 5.48122 20.75 7V21C20.75 21.4142 20.4142 21.75 20 21.75H4C3.58579 21.75 3.25 21.4142 3.25 21V7ZM19.25 7V8.25H4.75V7C4.75 6.30964 5.30964 5.75 6 5.75H18C18.6904 5.75 19.25 6.30964 19.25 7ZM19.25 9.75H4.75V20.25H19.25V9.75Z" fill="#2F2F2F"/>
<path d="M15.7437 13.393C16.0251 13.0926 16.0251 12.6055 15.7437 12.3051C15.4624 12.0047 15.0062 12.0047 14.7248 12.3051L11.3917 15.8637L9.97993 14.3564C9.69856 14.056 9.24238 14.056 8.96102 14.3564C8.67966 14.6568 8.67966 15.1438 8.96102 15.4442L10.8823 17.4955C11.1636 17.7959 11.6198 17.7959 11.9012 17.4955L15.7437 13.393Z" fill="#2F2F2F"/>
</svg>
