<svg width="24" height="25" viewBox="0 0 24 25" fill="none" xmlns="http://www.w3.org/2000/svg">
<path d="M12.2023 11.2081C12.1729 11.3756 12.0555 11.5127 11.8866 11.5127H11.8426C11.6737 11.5127 11.5489 11.3832 11.5269 11.2081L11.4535 10.5534C11.4241 10.3478 11.5416 10.1955 11.7398 10.1727C12.4299 10.1041 12.8117 9.83006 12.8117 9.3504V9.33517C12.8117 8.90881 12.496 8.61188 11.9674 8.61188C11.5783 8.61188 11.2626 8.75654 10.9689 9.03063C10.8955 9.09154 10.8001 9.13722 10.6973 9.13722C10.4697 9.13722 10.2861 8.94688 10.2861 8.71847C10.2861 8.60427 10.3302 8.48245 10.433 8.39109C10.8221 8.0104 11.314 7.75916 11.9894 7.75916C13.0172 7.75916 13.7147 8.35302 13.7147 9.30472V9.31995C13.7147 10.2793 13.0466 10.7132 12.2317 10.8579L12.2023 11.2081Z" fill="#2F2F2F"/>
<path d="M11.3213 12.6699V12.5938C11.3213 12.2969 11.5416 12.0685 11.8426 12.0685C12.1436 12.0685 12.3638 12.2969 12.3638 12.5938V12.6699C12.3638 12.9669 12.1436 13.1953 11.8426 13.1953C11.5416 13.1953 11.3213 12.9669 11.3213 12.6699Z" fill="#2F2F2F"/>
<path fill-rule="evenodd" clip-rule="evenodd" d="M6.10742 10.3333C6.10742 6.99954 8.72027 4.25 12.0003 4.25C15.2803 4.25 17.8931 6.99954 17.8931 10.3333C17.8931 13.6671 15.2803 16.4167 12.0003 16.4167C8.72027 16.4167 6.10742 13.6671 6.10742 10.3333ZM12.0003 5.75C9.59965 5.75 7.60742 7.77609 7.60742 10.3333C7.60742 12.8906 9.59965 14.9167 12.0003 14.9167C14.4009 14.9167 16.3931 12.8906 16.3931 10.3333C16.3931 7.77609 14.4009 5.75 12.0003 5.75Z" fill="#2F2F2F"/>
<path d="M5.42857 11.0833C5.05381 11.0833 4.75 11.3871 4.75 11.7618V20.2499H19.25V11.7618C19.25 11.3871 18.9462 11.0833 18.5714 11.0833V9.58325C19.7746 9.58325 20.75 10.5586 20.75 11.7618V20.9999C20.75 21.4141 20.4142 21.7499 20 21.7499H4C3.58579 21.7499 3.25 21.4141 3.25 20.9999V11.7618C3.25 10.5586 4.22538 9.58325 5.42857 9.58325V11.0833Z" fill="#2F2F2F"/>
</svg>
