<svg width="24" height="25" viewBox="0 0 24 25" fill="none" xmlns="http://www.w3.org/2000/svg">
<path d="M9.33301 10.9167C8.91879 10.9167 8.58301 11.2525 8.58301 11.6667C8.58301 12.081 8.91879 12.4167 9.33301 12.4167H14.6663C15.0806 12.4167 15.4163 12.081 15.4163 11.6667C15.4163 11.2525 15.0806 10.9167 14.6663 10.9167H9.33301Z" fill="#2F2F2F"/>
<path fill-rule="evenodd" clip-rule="evenodd" d="M3.25 7C3.25 5.48122 4.48122 4.25 6 4.25H18C19.5188 4.25 20.75 5.48122 20.75 7V21C20.75 21.4142 20.4142 21.75 20 21.75H4C3.58579 21.75 3.25 21.4142 3.25 21V7ZM19.25 7V8.25H4.75V7C4.75 6.30964 5.30964 5.75 6 5.75H18C18.6904 5.75 19.25 6.30964 19.25 7ZM19.25 9.75H4.75V20.25H19.25V9.75Z" fill="#2F2F2F"/>
</svg>
