<svg width="24" height="25" viewBox="0 0 24 25" fill="none" xmlns="http://www.w3.org/2000/svg">
<path fill-rule="evenodd" clip-rule="evenodd" d="M12 10.3629C13.6816 10.3629 14.9493 8.84396 14.9493 7.46686C14.9493 6.78703 14.6466 5.98818 14.0693 5.3441C13.501 4.70995 12.7615 4.33163 12 4.33163C11.2385 4.33163 10.499 4.70995 9.93068 5.3441C9.35344 5.98818 9.05067 6.78703 9.05067 7.46686C9.05067 8.84396 10.3184 10.3629 12 10.3629ZM18.009 17.7125C16.5728 16.1789 14.4303 15.1711 12 15.1711C9.56965 15.1711 7.42718 16.1789 5.99102 17.7125C5.60626 18.1234 5.47115 18.5145 5.46116 18.8416C5.45104 19.173 5.56624 19.5319 5.83001 19.8844C6.36367 20.5975 7.43628 21.1737 8.71386 21.1737H15.2861C16.5637 21.1737 17.6363 20.5975 18.17 19.8844C18.4338 19.5319 18.549 19.173 18.5388 18.8416C18.5289 18.5145 18.3937 18.1234 18.009 17.7125ZM12 11.9419C14.4355 11.9419 16.4099 9.7719 16.4099 7.46686C16.4099 5.16183 14.4355 2.75269 12 2.75269C9.5645 2.75269 7.59014 5.16183 7.59014 7.46686C7.59014 9.7719 9.5645 11.9419 12 11.9419ZM19.0353 16.5892C17.3157 14.7529 14.8001 13.5922 12 13.5922C9.19986 13.5922 6.6843 14.7529 4.96466 16.5892C4.36199 17.2327 4.02581 17.991 4.00143 18.7895C3.97742 19.5756 4.25833 20.2946 4.69456 20.8775C5.55134 22.0224 7.07382 22.7527 8.71386 22.7527H15.2861C16.9262 22.7527 18.4487 22.0224 19.3054 20.8775C19.7417 20.2946 20.0226 19.5756 19.9986 18.7895C19.9742 17.991 19.638 17.2327 19.0353 16.5892Z" fill="#2F2F2F"/>
</svg>
