<svg width="24" height="24" viewBox="0 0 24 24" fill="none" xmlns="http://www.w3.org/2000/svg">
<rect x="2.5" y="4.74731" width="19" height="14" rx="1.5" stroke="#2F2F2F"/>
<path d="M8 15.2473L7.55806 15.6893C7.80214 15.9333 8.19786 15.9333 8.44194 15.6893L8 15.2473ZM5.94194 12.3054C5.69786 12.0613 5.30214 12.0613 5.05806 12.3054C4.81398 12.5495 4.81398 12.9452 5.05806 13.1893L5.94194 12.3054ZM10.9419 13.1893C11.186 12.9452 11.186 12.5495 10.9419 12.3054C10.6979 12.0613 10.3021 12.0613 10.0581 12.3054L10.9419 13.1893ZM7.375 5.24731V15.2473H8.625V5.24731H7.375ZM8.44194 14.8054L5.94194 12.3054L5.05806 13.1893L7.55806 15.6893L8.44194 14.8054ZM8.44194 15.6893L9.69194 14.4393L8.80806 13.5554L7.55806 14.8054L8.44194 15.6893ZM9.69194 14.4393L10.9419 13.1893L10.0581 12.3054L8.80806 13.5554L9.69194 14.4393Z" fill="#2F2F2F"/>
<path d="M16 8.24731L16.4419 7.80537C16.1979 7.5613 15.8021 7.5613 15.5581 7.80537L16 8.24731ZM18.0581 11.1893C18.3021 11.4333 18.6979 11.4333 18.9419 11.1893C19.186 10.9452 19.186 10.5495 18.9419 10.3054L18.0581 11.1893ZM13.0581 10.3054C12.814 10.5495 12.814 10.9452 13.0581 11.1893C13.3021 11.4333 13.6979 11.4333 13.9419 11.1893L13.0581 10.3054ZM16.625 18.2473V8.24731H15.375V18.2473H16.625ZM15.5581 8.68926L18.0581 11.1893L18.9419 10.3054L16.4419 7.80537L15.5581 8.68926ZM15.5581 7.80537L14.3081 9.05537L15.1919 9.93926L16.4419 8.68926L15.5581 7.80537ZM14.3081 9.05537L13.0581 10.3054L13.9419 11.1893L15.1919 9.93926L14.3081 9.05537Z" fill="#2F2F2F"/>
</svg>
