<svg width="24" height="25" viewBox="0 0 24 25" fill="none" xmlns="http://www.w3.org/2000/svg">
<path d="M13.6593 5.18841C12.4233 4.90352 11.1366 4.94226 9.91951 5.30091C8.70603 5.65851 7.60229 6.32217 6.71008 7.22892L4.38455 9.45516V6.45993C4.38455 6.0776 4.07461 5.76766 3.69228 5.76766C3.30994 5.76766 3 6.0776 3 6.45993V11.0763L3.00001 11.0793C3.00059 11.2191 3.04262 11.3491 3.11444 11.4577C3.15742 11.5227 3.21106 11.58 3.27288 11.6271C3.29438 11.6436 3.31664 11.6585 3.33951 11.6721C3.44282 11.7334 3.56344 11.7686 3.69228 11.7686H8.22354C8.60587 11.7686 8.91581 11.4587 8.91581 11.0763C8.91581 10.694 8.60587 10.384 8.22354 10.384H5.41644L7.67518 8.22174C7.6804 8.21673 7.68555 8.21165 7.69062 8.20648C8.42037 7.46265 9.32202 6.9204 10.3109 6.629C11.2997 6.33762 12.3445 6.30621 13.3483 6.53759C14.3521 6.76898 15.2832 7.25593 16.0545 7.95432C16.8258 8.65277 17.4121 9.54003 17.7574 10.534C17.8828 10.8952 18.2773 11.0862 18.6385 10.9608C18.9996 10.8353 19.1907 10.4409 19.0653 10.0797C18.6445 8.86824 17.9288 7.78371 16.9838 6.928C16.0388 6.07222 14.8951 5.4733 13.6593 5.18841Z" fill="#2F2F2F"/>
<path d="M20.3771 13.4651C20.7269 13.4999 21 13.795 21 14.154V18.7703C21 19.1527 20.6901 19.4626 20.3077 19.4626C19.9254 19.4626 19.6154 19.1527 19.6154 18.7703V15.7741L17.2891 18.0011C16.3969 18.9079 15.2932 19.5716 14.0797 19.9292C12.8626 20.2878 11.5759 20.3266 10.3399 20.0417C9.10405 19.7568 7.96042 19.1579 7.01534 18.3021C6.07034 17.4464 5.3547 16.3618 4.9339 15.1504C4.80846 14.7892 4.99954 14.3947 5.36071 14.2693C5.72188 14.1438 6.11636 14.3349 6.24181 14.6961C6.58705 15.69 7.17334 16.5773 7.94468 17.2758C8.71594 17.9741 9.64712 18.4611 10.6509 18.6925C11.6547 18.9239 12.6995 18.8925 13.6883 18.6011C14.6772 18.3097 15.5788 17.7674 16.3086 17.0236C16.3136 17.0184 16.3188 17.0133 16.324 17.0083L18.5825 14.8462H15.7765C15.3941 14.8462 15.0842 14.5363 15.0842 14.154C15.0842 13.7716 15.3941 13.4617 15.7765 13.4617H20.2937C20.3216 13.4612 20.3494 13.4623 20.3771 13.4651Z" fill="#2F2F2F"/>
</svg>
