<svg width="24" height="25" viewBox="0 0 24 25" fill="none" xmlns="http://www.w3.org/2000/svg">
<path fill-rule="evenodd" clip-rule="evenodd" d="M5.77778 4.25C5.10737 4.25 4.46442 4.51632 3.99037 4.99037C3.51632 5.46442 3.25 6.10737 3.25 6.77778V19.2222C3.25 19.8926 3.51632 20.5356 3.99037 21.0096C4.46442 21.4837 5.10737 21.75 5.77778 21.75H7.54829L7.55469 21.75L7.56108 21.75H16.4372L16.4436 21.75L16.45 21.75H18.2222C18.8926 21.75 19.5356 21.4837 20.0096 21.0096C20.4837 20.5356 20.75 19.8926 20.75 19.2222V9.44444C20.75 9.24553 20.671 9.05477 20.5303 8.91411L16.0859 4.46967C15.9452 4.32902 15.7545 4.25 15.5556 4.25H5.77778ZM5.77778 5.75C5.50519 5.75 5.24377 5.85828 5.05103 6.05103C4.85828 6.24377 4.75 6.50519 4.75 6.77778V19.2222C4.75 19.4948 4.85828 19.7562 5.05103 19.949C5.24378 20.1417 5.50519 20.25 5.77778 20.25H6.80469V13.8889C6.80469 13.4747 7.14047 13.1389 7.55469 13.1389H16.4436C16.8578 13.1389 17.1936 13.4747 17.1936 13.8889V20.25H18.2222C18.4948 20.25 18.7562 20.1417 18.949 19.949C19.1417 19.7562 19.25 19.4948 19.25 19.2222V9.7551L15.2449 5.75H8.30469V8.69444H14.6658C15.08 8.69444 15.4158 9.03023 15.4158 9.44444C15.4158 9.85866 15.08 10.1944 14.6658 10.1944H7.55469C7.14047 10.1944 6.80469 9.85866 6.80469 9.44444V5.75H5.77778ZM8.30469 20.25H15.6936V14.6389H8.30469V20.25Z" fill="#2F2F2F"/>
</svg>
