<svg width="24" height="25" viewBox="0 0 24 25" fill="none" xmlns="http://www.w3.org/2000/svg">
<path fill-rule="evenodd" clip-rule="evenodd" d="M11.125 5.25C7.32804 5.25 4.25 8.32804 4.25 12.125C4.25 15.922 7.32804 19 11.125 19C12.9763 19 14.6566 18.2683 15.8926 17.0783L19.3447 20.5304C19.6376 20.8233 20.1125 20.8233 20.4054 20.5304C20.6983 20.2375 20.6983 19.7626 20.4054 19.4697L16.8574 15.9218C17.5794 14.8338 18 13.5285 18 12.125C18 8.32804 14.922 5.25 11.125 5.25ZM5.75 12.125C5.75 9.15647 8.15647 6.75 11.125 6.75C14.0935 6.75 16.5 9.15647 16.5 12.125C16.5 15.0935 14.0935 17.5 11.125 17.5C8.15647 17.5 5.75 15.0935 5.75 12.125Z" fill="#2F2F2F"/>
</svg>
