<svg width="24" height="25" viewBox="0 0 24 25" fill="none" xmlns="http://www.w3.org/2000/svg">
<path d="M15.7437 11.393C16.0251 11.0926 16.0251 10.6055 15.7437 10.3051C15.4624 10.0047 15.0062 10.0047 14.7248 10.3051L11.3917 13.8638L9.97993 12.3564C9.69856 12.056 9.24238 12.056 8.96102 12.3564C8.67966 12.6568 8.67966 13.1439 8.96102 13.4443L10.8823 15.4956C11.1636 15.796 11.6198 15.796 11.9012 15.4956L15.7437 11.393Z" fill="#2F2F2F"/>
<path fill-rule="evenodd" clip-rule="evenodd" d="M16.1443 4.82571C14.9455 4.58863 12.0648 3 12.0648 3C12.0648 3 9.18372 4.58865 7.98496 4.82573C7.50766 4.92012 6.58828 5.04993 5.66768 5.17045C4.1478 5.36945 3.06866 6 3.06881 8.16993C3.00015 14 4.41076 16.4637 6.14797 18.6263C8.14686 21.1146 11.2022 22.6204 12.0648 23C12.9273 22.6204 15.9823 21.1146 17.9812 18.6263C19.7184 16.4637 21.0604 13 21.0604 8.16991C21.0604 6 19.9814 5.36942 18.4615 5.17043C17.5409 5.0499 16.6216 4.9201 16.1443 4.82571ZM4.56871 8.1876L4.56881 8.17871L4.56881 8.16983C4.56875 7.32627 4.77436 7.07522 4.8519 6.99869C4.96447 6.8876 5.21987 6.74189 5.8624 6.65776C6.7723 6.53863 7.74197 6.40283 8.27597 6.29723C9.10319 6.13363 10.3031 5.57873 11.135 5.17067C11.4792 5.00182 11.7998 4.83796 12.0647 4.69989C12.3296 4.83795 12.6502 5.0018 12.9944 5.17064C13.8262 5.57869 15.026 6.1336 15.8532 6.2972C16.3872 6.40281 17.3569 6.53861 18.2668 6.65774C18.9093 6.74186 19.1647 6.88757 19.2772 6.99865C19.3548 7.07521 19.5604 7.32631 19.5604 8.16991C19.5604 12.7266 18.2959 15.8394 16.8118 17.6869C15.3612 19.4927 13.2268 20.751 12.0648 21.3392C10.9026 20.751 8.76805 19.4928 7.31738 17.6869C6.50796 16.6793 5.83228 15.6744 5.34808 14.281C4.85881 12.8731 4.53581 10.9815 4.56871 8.1876Z" fill="#2F2F2F"/>
</svg>
