<svg width="24" height="25" viewBox="0 0 24 25" fill="none" xmlns="http://www.w3.org/2000/svg">
<path d="M5.75 8.25269C5.75 6.7339 6.98122 5.50269 8.5 5.50269H18.5C20.0188 5.50269 21.25 6.7339 21.25 8.25269V17.2527C21.25 18.7715 20.0188 20.0027 18.5 20.0027H8.5C6.98122 20.0027 5.75 18.7715 5.75 17.2527V16.2527H7.25V17.2527C7.25 17.943 7.80964 18.5027 8.5 18.5027H18.5C19.1904 18.5027 19.75 17.943 19.75 17.2527V8.25269C19.75 7.56233 19.1904 7.00269 18.5 7.00269H8.5C7.80964 7.00269 7.25 7.56233 7.25 8.25269V9.25269H5.75V8.25269Z" fill="#2F2F2F"/>
<path d="M3 11.2527C3 10.8385 3.33579 10.5027 3.75 10.5027H8.75C9.16421 10.5027 9.5 10.8385 9.5 11.2527C9.5 11.6669 9.16421 12.0027 8.75 12.0027H3.75C3.33579 12.0027 3 11.6669 3 11.2527Z" fill="#2F2F2F"/>
<path d="M1.75 13.5027C1.33579 13.5027 1 13.8385 1 14.2527C1 14.6669 1.33579 15.0027 1.75 15.0027H8.75C9.16421 15.0027 9.5 14.6669 9.5 14.2527C9.5 13.8385 9.16421 13.5027 8.75 13.5027H1.75Z" fill="#2F2F2F"/>
</svg>
