<svg width="24" height="25" viewBox="0 0 24 25" fill="none" xmlns="http://www.w3.org/2000/svg">
<path fill-rule="evenodd" clip-rule="evenodd" d="M4.23088 12.914C4.07234 12.6685 3.94659 12.4583 3.85463 12.2981C3.94659 12.138 4.07234 11.9278 4.23088 11.6823C4.60967 11.0958 5.17073 10.3156 5.89943 9.53837C7.3705 7.96922 9.43599 6.50269 12 6.50269C14.564 6.50269 16.6295 7.96922 18.1006 9.53837C18.8293 10.3156 19.3903 11.0958 19.7691 11.6823C19.9277 11.9278 20.0534 12.138 20.1454 12.2981C20.0534 12.4583 19.9277 12.6685 19.7691 12.914C19.3903 13.5005 18.8293 14.2806 18.1006 15.0579C16.6295 16.6271 14.564 18.0936 12 18.0936C9.43599 18.0936 7.3705 16.6271 5.89943 15.0579C5.17073 14.2806 4.60967 13.5005 4.23088 12.914ZM21 12.2981C21.6708 11.9627 21.6707 11.9625 21.6706 11.9622L21 12.2981ZM21.6706 11.9622C21.7761 12.1733 21.7764 12.4224 21.6708 12.6336L21 12.2981C21.6708 12.6336 21.6703 12.6345 21.6702 12.6348L21.6693 12.6366L21.6666 12.642L21.6574 12.6598C21.6498 12.6748 21.6389 12.6958 21.6248 12.7224C21.5966 12.7757 21.5555 12.8517 21.5019 12.9471C21.3946 13.1378 21.2366 13.4067 21.0292 13.7278C20.6154 14.3685 20.0003 15.2247 19.1949 16.0838C17.5978 17.7874 15.1633 19.5936 12 19.5936C8.83673 19.5936 6.40222 17.7874 4.80512 16.0838C3.99973 15.2247 3.38465 14.3685 2.97082 13.7278C2.76345 13.4067 2.60538 13.1378 2.49813 12.9471C2.44447 12.8517 2.40345 12.7757 2.37524 12.7224C2.36114 12.6958 2.35023 12.6748 2.34255 12.6598L2.33344 12.642L2.3307 12.6366L2.32979 12.6348L2.32918 12.6336L3 12.2981C2.32918 11.9627 2.32965 11.9618 2.32979 11.9615L2.3307 11.9597L2.33344 11.9543L2.34255 11.9364C2.35023 11.9215 2.36114 11.9005 2.37524 11.8738C2.40345 11.8205 2.44447 11.7446 2.49813 11.6492C2.60538 11.4585 2.76345 11.1896 2.97082 10.8685C3.38465 10.2278 3.99973 9.37154 4.80512 8.51246C6.40222 6.80888 8.83673 5.00269 12 5.00269C15.1633 5.00269 17.5978 6.80888 19.1949 8.51246C20.0003 9.37154 20.6154 10.2278 21.0292 10.8685C21.2366 11.1896 21.3946 11.4585 21.5019 11.6492C21.5555 11.7446 21.5966 11.8205 21.6248 11.8738C21.6389 11.9005 21.6498 11.9215 21.6574 11.9364L21.6666 11.9543L21.6693 11.9597L21.6706 11.9622ZM2.32918 12.6336C2.22361 12.4224 2.22361 12.1739 2.32918 11.9627L3 12.2981C2.33384 12.6312 2.32907 12.6333 2.32918 12.6335L2.32918 12.6336ZM10.2954 12.2981C10.2954 11.3567 11.0586 10.5935 12 10.5935C12.9413 10.5935 13.7045 11.3567 13.7045 12.2981C13.7045 13.2394 12.9413 14.0026 12 14.0026C11.0586 14.0026 10.2954 13.2394 10.2954 12.2981ZM12 9.09351C10.2301 9.09351 8.79541 10.5282 8.79541 12.2981C8.79541 14.0679 10.2301 15.5026 12 15.5026C13.7698 15.5026 15.2045 14.0679 15.2045 12.2981C15.2045 10.5282 13.7698 9.09351 12 9.09351Z" fill="black"/>
</svg>
