<svg width="24" height="25" viewBox="0 0 24 25" fill="none" xmlns="http://www.w3.org/2000/svg">
<path d="M3.77143 6C3.34538 6 3 6.34592 3 6.77264C3 7.19935 3.34538 7.54527 3.77143 7.54527H20.2286C20.6546 7.54527 21 7.19935 21 6.77264C21 6.34592 20.6546 6 20.2286 6H3.77143Z" fill="#2F2F2F"/>
<path d="M11.6514 11.9712C11.2913 11.9712 10.9993 12.3171 10.9993 12.7439C10.9993 13.1706 11.2913 13.5165 11.6514 13.5165H20.3471C20.7073 13.5165 20.9993 13.1706 20.9993 12.7439C20.9993 12.3171 20.7073 11.9712 20.3471 11.9712H11.6514Z" fill="#2F2F2F"/>
<path d="M12.9997 19.1349C12.9997 18.7082 13.3578 18.3623 13.7997 18.3623H20.1997C20.6415 18.3623 20.9997 18.7082 20.9997 19.1349C20.9997 19.5616 20.6415 19.9075 20.1997 19.9075H13.7997C13.3578 19.9075 12.9997 19.5616 12.9997 19.1349Z" fill="#2F2F2F"/>
<path d="M7.49976 10.1691C7.49976 9.74237 7.16397 9.39645 6.74976 9.39645C6.33555 9.39645 5.99976 9.74237 5.99976 10.1691V16.0926H3.95687C3.51141 16.0926 3.28833 16.6475 3.60331 16.9719L6.39621 19.8491C6.59147 20.0503 6.90805 20.0503 7.10331 19.8491L9.89621 16.9719C10.2112 16.6475 9.9881 16.0926 9.54265 16.0926H7.49976V10.1691Z" fill="#2F2F2F"/>
</svg>
