<svg width="24" height="25" viewBox="0 0 24 25" fill="none" xmlns="http://www.w3.org/2000/svg">
<path fill-rule="evenodd" clip-rule="evenodd" d="M18.234 6.8501L18.2218 6.85H16.3051V5.8C16.3051 5.12668 16.041 4.4791 15.568 4.00018C15.0947 3.52095 14.4508 3.25 13.7773 3.25H10.2218C9.54835 3.25 8.90441 3.52095 8.4311 4.00018C7.9581 4.4791 7.69401 5.12668 7.69401 5.8V6.85H5.77734L5.76511 6.8501H4C3.58579 6.8501 3.25 7.18588 3.25 7.6001C3.25 8.01431 3.58579 8.3501 4 8.3501H5.02734V20.2C5.02734 20.8733 5.29143 21.5209 5.76443 21.9998C6.23774 22.479 6.88169 22.75 7.55512 22.75H16.444C17.1174 22.75 17.7614 22.479 18.2347 21.9998C18.7077 21.5209 18.9718 20.8733 18.9718 20.2V8.3501H20C20.4142 8.3501 20.75 8.01431 20.75 7.6001C20.75 7.18588 20.4142 6.8501 20 6.8501H18.234ZM10.2218 4.75C9.95223 4.75 9.69181 4.85833 9.49832 5.05423C9.30453 5.25045 9.19401 5.51854 9.19401 5.8V6.85H14.8051V5.8C14.8051 5.51854 14.6946 5.25045 14.5008 5.05423C14.3073 4.85833 14.0469 4.75 13.7773 4.75H10.2218ZM6.83166 20.9458C6.63786 20.7495 6.52734 20.4815 6.52734 20.2V8.3501H17.4718V20.2C17.4718 20.4815 17.3613 20.7495 17.1675 20.9458C16.974 21.1417 16.7136 21.25 16.444 21.25H7.55512C7.28557 21.25 7.02514 21.1417 6.83166 20.9458Z" fill="#2F2F2F"/>
</svg>
