<svg width="18" height="18" viewBox="0 0 18 18" fill="none" xmlns="http://www.w3.org/2000/svg">
<path fill-rule="evenodd" clip-rule="evenodd" d="M7.81492 5.42314C7.58478 5.26971 7.28887 5.25541 7.045 5.38592C6.80114 5.51643 6.6489 5.77058 6.6489 6.04718V12.4472C6.6489 12.7238 6.80114 12.9779 7.045 13.1084C7.28887 13.2389 7.58478 13.2246 7.81492 13.0712L12.6149 9.87121C12.8236 9.73211 12.9489 9.49794 12.9489 9.24718C12.9489 8.99641 12.8236 8.76224 12.6149 8.62314L7.81492 5.42314ZM10.8468 9.24718L8.1489 11.0458V7.44856L10.8468 9.24718Z" fill="#2F2F2F"/>
<path fill-rule="evenodd" clip-rule="evenodd" d="M9 0.497314C4.16751 0.497314 0.25 4.41482 0.25 9.24731C0.25 14.0798 4.16751 17.9973 9 17.9973C13.8325 17.9973 17.75 14.0798 17.75 9.24731C17.75 4.41482 13.8325 0.497314 9 0.497314ZM1.75 9.24731C1.75 5.24325 4.99594 1.99731 9 1.99731C13.0041 1.99731 16.25 5.24325 16.25 9.24731C16.25 13.2514 13.0041 16.4973 9 16.4973C4.99594 16.4973 1.75 13.2514 1.75 9.24731Z" fill="#2F2F2F"/>
</svg>
