<svg width="24" height="24" viewBox="0 0 24 24" fill="none" xmlns="http://www.w3.org/2000/svg">
<path d="M12.7994 14.4001C12.7994 14.8419 12.4413 15.2001 11.9994 15.2001C11.5576 15.2001 11.1994 14.8419 11.1994 14.4001V6.73137L8.56513 9.36569C8.25271 9.67811 7.74618 9.67811 7.43376 9.36569C7.12134 9.05327 7.12134 8.54673 7.43376 8.23431L11.4338 4.23431C11.5381 4.12999 11.6641 4.0605 11.7972 4.02585C11.8145 4.02135 11.832 4.01741 11.8497 4.01406C11.9478 3.99547 12.0486 3.99531 12.1467 4.0136C12.1653 4.01705 12.1836 4.02114 12.2017 4.02585C12.3348 4.0605 12.4608 4.12999 12.5651 4.23431L16.5651 8.23431C16.8776 8.54673 16.8776 9.05327 16.5651 9.36569C16.2527 9.67811 15.7462 9.67811 15.4338 9.36569L12.7994 6.73137V14.4001Z" fill="#2F2F2F"/>
<path d="M4.8 13.6001C5.24183 13.6001 5.6 13.9582 5.6 14.4001V17.6001C5.6 17.8122 5.68429 18.0157 5.83431 18.1658C5.98434 18.3158 6.18783 18.4001 6.4 18.4001H17.6C17.8122 18.4001 18.0157 18.3158 18.1657 18.1658C18.3157 18.0157 18.4 17.8122 18.4 17.6001V14.4001C18.4 13.9582 18.7582 13.6001 19.2 13.6001C19.6418 13.6001 20 13.9582 20 14.4001V17.6001C20 18.2366 19.7471 18.847 19.2971 19.2971C18.847 19.7472 18.2365 20.0001 17.6 20.0001H6.4C5.76348 20.0001 5.15303 19.7472 4.70294 19.2971C4.25286 18.847 4 18.2366 4 17.6001V14.4001C4 13.9582 4.35817 13.6001 4.8 13.6001Z" fill="#2F2F2F"/>
</svg>
