<svg width="16" height="16" viewBox="0 0 16 16" fill="none" xmlns="http://www.w3.org/2000/svg">
<path fill-rule="evenodd" clip-rule="evenodd" d="M2.55556 0.25C1.28223 0.25 0.25 1.28223 0.25 2.55556V13.4444C0.25 14.7178 1.28223 15.75 2.55556 15.75H13.4444C14.7178 15.75 15.75 14.7178 15.75 13.4444V2.55556C15.75 1.28223 14.7178 0.25 13.4444 0.25H2.55556ZM1.75 2.55556C1.75 2.11066 2.11066 1.75 2.55556 1.75H13.4444C13.8893 1.75 14.25 2.11066 14.25 2.55556V8.52343L11.6406 5.91401C11.4999 5.77335 11.3092 5.69434 11.1102 5.69434C10.9113 5.69434 10.7206 5.77335 10.5799 5.91401L2.28905 14.2049C1.97512 14.0949 1.75 13.7959 1.75 13.4444V2.55556ZM11.1102 7.505L14.25 10.6448V13.4444C14.25 13.8893 13.8893 14.25 13.4444 14.25H4.36524L11.1102 7.505ZM5.27702 3.36121C4.21847 3.36121 3.36035 4.21933 3.36035 5.27787C3.36035 6.33642 4.21847 7.19454 5.27702 7.19454C6.33556 7.19454 7.19368 6.33642 7.19368 5.27787C7.19368 4.21933 6.33556 3.36121 5.27702 3.36121ZM4.86035 5.27787C4.86035 5.04775 5.0469 4.86121 5.27702 4.86121C5.50714 4.86121 5.69368 5.04775 5.69368 5.27787C5.69368 5.50799 5.50714 5.69454 5.27702 5.69454C5.0469 5.69454 4.86035 5.50799 4.86035 5.27787Z" fill="#2F2F2F"/>
</svg>
