<svg width="25" height="24" viewBox="0 0 25 24" fill="none" xmlns="http://www.w3.org/2000/svg">
<path d="M19.6429 2H5.35714C3.72449 2 2.5 3.22449 2.5 4.85714V19.1429C2.5 20.6735 3.72449 22 5.35714 22H19.6429C21.1735 22 22.5 20.7755 22.5 19.1429V4.85714C22.398 3.22449 21.1735 2 19.6429 2ZM8.41837 13.0204C7.90816 13.0204 7.39796 12.6122 7.39796 12C7.39796 11.4898 7.90816 10.9796 8.41837 10.9796H11.4796V7.91837C11.4796 7.40816 11.9898 6.89796 12.5 6.89796C13.1122 6.89796 13.5204 7.40816 13.5204 7.91837V10.9796H16.5816C17.1939 10.9796 17.602 11.4898 17.602 12C17.602 12.6122 17.1939 13.0204 16.5816 13.0204H13.5204V16.0816C13.5204 16.6939 13.1122 17.102 12.5 17.102C11.9898 17.102 11.4796 16.6939 11.4796 16.0816V13.0204H8.41837Z" fill="#2F2F2F"/>
</svg>
