<svg width="25" height="24" viewBox="0 0 25 24" fill="none" xmlns="http://www.w3.org/2000/svg">
<path fill-rule="evenodd" clip-rule="evenodd" d="M2.5 4.82051C2.5 3.26279 3.76279 2 5.32051 2H19.6795C21.2372 2 22.5 3.26279 22.5 4.82051V19.1795C22.5 20.7372 21.2372 22 19.6795 22H5.32051C3.76279 22 2.5 20.7372 2.5 19.1795V4.82051ZM5.32051 3.53846C4.61246 3.53846 4.03846 4.11246 4.03846 4.82051V19.1795C4.03846 19.8875 4.61246 20.4615 5.32051 20.4615H19.6795C20.3875 20.4615 20.9615 19.8875 20.9615 19.1795V4.82051C20.9615 4.11246 20.3875 3.53846 19.6795 3.53846H5.32051Z" fill="#C1C1C1"/>
<path fill-rule="evenodd" clip-rule="evenodd" d="M12.5 7.12821C12.9248 7.12821 13.2692 7.4726 13.2692 7.89744V11.2308H16.6026C17.0274 11.2308 17.3718 11.5752 17.3718 12C17.3718 12.4248 17.0274 12.7692 16.6026 12.7692H13.2692V16.1026C13.2692 16.5274 12.9248 16.8718 12.5 16.8718C12.0752 16.8718 11.7308 16.5274 11.7308 16.1026V12.7692H8.39744C7.9726 12.7692 7.62821 12.4248 7.62821 12C7.62821 11.5752 7.9726 11.2308 8.39744 11.2308H11.7308V7.89744C11.7308 7.4726 12.0752 7.12821 12.5 7.12821Z" fill="#C1C1C1"/>
</svg>
