<svg width="24" height="24" viewBox="0 0 24 24" fill="none" xmlns="http://www.w3.org/2000/svg">
<path d="M19 3H9C7.89543 3 7 3.89543 7 5H17C18.1046 5 19 5.89543 19 7V17C20.1046 17 21 16.1046 21 15V5C21 3.89543 20.1046 3 19 3Z" fill="#141414"/>
<path fill-rule="evenodd" clip-rule="evenodd" d="M5 6.25005C3.48122 6.25005 2.25 7.48126 2.25 9.00005V19C2.25 20.5188 3.48122 21.75 5 21.75H15C16.5188 21.75 17.75 20.5188 17.75 19V9.00005C17.75 7.48126 16.5188 6.25005 15 6.25005H5ZM10 15C11.6569 15 13 13.6569 13 12C13 10.3432 11.6569 9.00005 10 9.00005C8.34315 9.00005 7 10.3432 7 12C7 13.6569 8.34315 15 10 15ZM7 16.5C6.44772 16.5 6 16.9478 6 17.5C6 18.0523 6.44772 18.5 7 18.5H13C13.5523 18.5 14 18.0523 14 17.5C14 16.9478 13.5523 16.5 13 16.5H7Z" fill="#141414"/>
</svg>
