<svg width="24" height="24" viewBox="0 0 24 24" fill="none" xmlns="http://www.w3.org/2000/svg">
<path fill-rule="evenodd" clip-rule="evenodd" d="M2.25 9C2.25 7.48122 3.48122 6.25 5 6.25H15C16.5188 6.25 17.75 7.48122 17.75 9V19C17.75 20.5188 16.5188 21.75 15 21.75H5C3.48122 21.75 2.25 20.5188 2.25 19V9ZM5 7.75C4.30964 7.75 3.75 8.30964 3.75 9V19C3.75 19.6904 4.30964 20.25 5 20.25H15C15.6904 20.25 16.25 19.6904 16.25 19V9C16.25 8.30964 15.6904 7.75 15 7.75H5Z" fill="#C1C1C1"/>
<path d="M13 12C13 13.6569 11.6569 15 10 15C8.34315 15 7 13.6569 7 12C7 10.3431 8.34315 9 10 9C11.6569 9 13 10.3431 13 12Z" fill="#C1C1C1"/>
<path fill-rule="evenodd" clip-rule="evenodd" d="M6.25 5C6.25 3.48122 7.48122 2.25 9 2.25H19C20.5188 2.25 21.75 3.48122 21.75 5V15C21.75 16.5188 20.5188 17.75 19 17.75V16.25C19.6904 16.25 20.25 15.6904 20.25 15V5C20.25 4.30964 19.6904 3.75 19 3.75H9C8.30964 3.75 7.75 4.30964 7.75 5H6.25Z" fill="#C1C1C1"/>
<path d="M6 17.5C6 16.9477 6.44772 16.5 7 16.5H13C13.5523 16.5 14 16.9477 14 17.5C14 18.0523 13.5523 18.5 13 18.5H7C6.44772 18.5 6 18.0523 6 17.5Z" fill="#C1C1C1"/>
</svg>
