<svg width="25" height="24" viewBox="0 0 25 24" fill="none" xmlns="http://www.w3.org/2000/svg">
<path fill-rule="evenodd" clip-rule="evenodd" d="M13.2714 3.75C12.8143 3.41667 12.1857 3.41667 11.7286 3.75L5.55714 8.25C5.23339 8.48607 5.04286 8.85655 5.04286 9.25V19.25C5.04286 19.9404 5.61849 20.5 6.32857 20.5H18.6714C19.3815 20.5 19.9571 19.9404 19.9571 19.25V9.25C19.9571 8.85655 19.7666 8.48607 19.4429 8.25L13.2714 3.75ZM10.8029 2.55C11.8086 1.81667 13.1914 1.81667 14.1971 2.55L20.3686 7.05C21.0808 7.56935 21.5 8.38442 21.5 9.25V19.25C21.5 20.7688 20.2336 22 18.6714 22H6.32857C4.76639 22 3.5 20.7688 3.5 19.25V9.25C3.5 8.38442 3.91918 7.56935 4.63143 7.05L10.8029 2.55Z" fill="#C1C1C1"/>
<path d="M8.38571 18C8.38571 15.7909 10.2277 14 12.5 14C14.7723 14 16.6143 15.7909 16.6143 18H8.38571Z" fill="#C1C1C1"/>
</svg>
