<svg width="25" height="24" viewBox="0 0 25 24" fill="none" xmlns="http://www.w3.org/2000/svg">
<path d="M19.238 10.1633H5.76203C5.37701 10.1633 4.99198 10.4694 4.99198 10.9796V19.1429C4.99198 20.6735 6.14706 22 7.68717 22H17.3128C18.7567 22 20.008 20.7755 20.008 19.1429V10.9796C19.9118 10.4694 19.623 10.1633 19.238 10.1633ZM15.9652 14.6531L12.115 18.7347C11.9225 18.9388 11.7299 19.0408 11.5374 19.0408C11.3449 19.0408 11.1524 18.9388 10.9599 18.7347L9.03476 16.6939C8.74599 16.3878 8.74599 15.7755 9.03476 15.4694C9.32353 15.1633 9.90107 15.1633 10.1898 15.4694L11.5374 16.898L14.8102 13.4286C15.0989 13.1224 15.6765 13.1224 15.9652 13.4286C16.254 13.7347 16.254 14.2449 15.9652 14.6531Z" fill="#2F2F2F"/>
<path d="M21.3556 8.02041C21.1631 8.42857 20.7781 8.63265 20.2968 8.63265H4.70321C4.22193 8.63265 3.8369 8.42857 3.64439 8.02041C3.45187 7.61225 3.45187 7.10204 3.64439 6.69388L5.85829 2.81633C6.0508 2.30612 6.62834 2 7.20588 2H17.6979C18.2754 2 18.8529 2.30612 19.1417 2.81633L21.3556 6.69388C21.5481 7.10204 21.5481 7.61225 21.3556 8.02041Z" fill="#2F2F2F"/>
</svg>
