<svg width="25" height="24" viewBox="0 0 25 24" fill="none" xmlns="http://www.w3.org/2000/svg">
<path fill-rule="evenodd" clip-rule="evenodd" d="M5.0551 10.9744C5.0551 10.5495 5.37767 10.2051 5.77558 10.2051H19.2244C19.6223 10.2051 19.9449 10.5495 19.9449 10.9744V19.1795C19.9449 20.7372 18.7621 22 17.3032 22H7.69684C6.23785 22 5.0551 20.7372 5.0551 19.1795V10.9744ZM6.49605 11.7436V19.1795C6.49605 19.8875 7.03366 20.4615 7.69684 20.4615H17.3032C17.9663 20.4615 18.5039 19.8875 18.5039 19.1795V11.7436H6.49605Z" fill="#C1C1C1"/>
<path fill-rule="evenodd" clip-rule="evenodd" d="M15.8913 13.5074C16.1727 13.8078 16.1727 14.2948 15.8913 14.5952L12.0488 18.6978C11.7675 18.9982 11.3113 18.9982 11.0299 18.6978L9.10865 16.6465C8.82729 16.3461 8.82729 15.859 9.10865 15.5586C9.39002 15.2582 9.84619 15.2582 10.1276 15.5586L11.5394 17.066L14.8724 13.5074C15.1538 13.207 15.61 13.207 15.8913 13.5074Z" fill="#C1C1C1"/>
<path fill-rule="evenodd" clip-rule="evenodd" d="M5.83857 2.87142C6.14239 2.33079 6.6896 2 7.28011 2H17.7199C18.3104 2 18.8576 2.33079 19.1614 2.87142L21.327 6.72501C21.8072 7.57952 21.2307 8.66667 20.2974 8.66667H4.70264C3.76928 8.66667 3.19276 7.57952 3.67298 6.72501L5.83857 2.87142ZM7.28011 3.53846C7.19575 3.53846 7.11758 3.58572 7.07418 3.66295L5.12681 7.12821H19.8732L17.9258 3.66295C17.8824 3.58572 17.8042 3.53846 17.7199 3.53846H7.28011Z" fill="#C1C1C1"/>
</svg>
