<svg width="24" height="24" viewBox="0 0 24 24" fill="none" xmlns="http://www.w3.org/2000/svg">
<path fill-rule="evenodd" clip-rule="evenodd" d="M12 9.61024C13.6816 9.61024 14.9493 8.09127 14.9493 6.71418C14.9493 6.03434 14.6466 5.23549 14.0693 4.59142C13.501 3.95727 12.7615 3.57895 12 3.57895C11.2385 3.57895 10.499 3.95727 9.93068 4.59142C9.35344 5.23549 9.05067 6.03434 9.05067 6.71418C9.05067 8.09128 10.3184 9.61024 12 9.61024ZM18.009 16.9598C16.5728 15.4263 14.4303 14.4184 12 14.4184C9.56965 14.4184 7.42718 15.4263 5.99102 16.9598C5.60626 17.3707 5.47115 17.7618 5.46116 18.0889C5.45104 18.4203 5.56624 18.7792 5.83001 19.1317C6.36367 19.8448 7.43628 20.4211 8.71386 20.4211H15.2861C16.5637 20.4211 17.6363 19.8448 18.17 19.1317C18.4338 18.7792 18.549 18.4203 18.5388 18.0889C18.5289 17.7618 18.3937 17.3707 18.009 16.9598ZM12 11.1892C14.4355 11.1892 16.4099 9.01921 16.4099 6.71418C16.4099 4.40914 14.4355 2 12 2C9.5645 2 7.59014 4.40914 7.59014 6.71418C7.59014 9.01921 9.5645 11.1892 12 11.1892ZM19.0353 15.8365C17.3157 14.0002 14.8001 12.8395 12 12.8395C9.19986 12.8395 6.6843 14.0002 4.96466 15.8365C4.36199 16.48 4.02581 17.2383 4.00143 18.0368C3.97742 18.8229 4.25833 19.5419 4.69456 20.1248C5.55134 21.2697 7.07382 22 8.71386 22H15.2861C16.9262 22 18.4487 21.2697 19.3054 20.1248C19.7417 19.5419 20.0226 18.8229 19.9986 18.0368C19.9742 17.2383 19.638 16.48 19.0353 15.8365Z" fill="#C1C1C1"/>
</svg>
