<svg width="24" height="24" viewBox="0 0 24 24" fill="none" xmlns="http://www.w3.org/2000/svg">
<path fill-rule="evenodd" clip-rule="evenodd" d="M16.4099 6.71418C16.4099 9.01921 14.4355 11.1892 12 11.1892C9.5645 11.1892 7.59014 9.01921 7.59014 6.71418C7.59014 4.40914 9.5645 2 12 2C14.4355 2 16.4099 4.40914 16.4099 6.71418Z" fill="#2F2F2F"/>
<path fill-rule="evenodd" clip-rule="evenodd" d="M12 12.8395C14.8001 12.8395 17.3157 14.0002 19.0353 15.8365C19.638 16.48 19.9742 17.2383 19.9986 18.0368C20.0226 18.8229 19.7417 19.5419 19.3054 20.1248C18.4487 21.2697 16.9262 22 15.2861 22H8.71386C7.07382 22 5.55134 21.2697 4.69456 20.1248C4.25833 19.5419 3.97742 18.8229 4.00143 18.0368C4.02581 17.2383 4.36199 16.48 4.96466 15.8365C6.6843 14.0002 9.19986 12.8395 12 12.8395Z" fill="#2F2F2F"/>
</svg>
