<svg width="24" height="25" viewBox="0 0 24 25" fill="none" xmlns="http://www.w3.org/2000/svg">
<path fill-rule="evenodd" clip-rule="evenodd" d="M6.52114 15.1075C2.79257 10.4814 6.35161 4 12.499 4C18.7551 4 22.1956 10.6452 18.4429 15.1471L13.336 21.6309C12.9512 22.1194 12.1613 22.1243 11.7705 21.6379L6.52114 15.1075ZM16.4296 10.4224C16.8116 10.0404 16.8116 9.42114 16.4296 9.03917C16.0476 8.65719 15.4283 8.65719 15.0464 9.03917L11.7544 12.3311L10.1697 10.7464C9.78776 10.3644 9.16845 10.3644 8.78648 10.7464C8.40451 11.1284 8.40451 11.7477 8.78648 12.1297L11.0628 14.406C11.4448 14.7879 12.0641 14.7879 12.446 14.406L16.4296 10.4224Z" fill="#2F2F2F"/>
</svg>
