<svg width="24" height="24" viewBox="0 0 24 24" fill="none" xmlns="http://www.w3.org/2000/svg">
<path fill-rule="evenodd" clip-rule="evenodd" d="M7.2 4C5.43269 4 4 5.43269 4 7.2V16.8C4 18.5673 5.43269 20 7.2 20H16.8C18.5673 20 20 18.5673 20 16.8V7.2C20 5.43269 18.5673 4 16.8 4H7.2ZM15.7657 10.2581C16.0781 9.92454 16.0781 9.38373 15.7657 9.05017C15.4533 8.71661 14.9467 8.71661 14.6343 9.05017L10.9333 13.0016L9.36569 11.3279C9.05327 10.9943 8.54673 10.9943 8.23431 11.3279C7.9219 11.6614 7.9219 12.2022 8.23431 12.5358L10.3676 14.8135C10.6801 15.1471 11.1866 15.1471 11.499 14.8135L15.7657 10.2581Z" fill="#2F2F2F"/>
</svg>
