<svg width="24" height="25" viewBox="0 0 24 25" fill="none" xmlns="http://www.w3.org/2000/svg">
<path fill-rule="evenodd" clip-rule="evenodd" d="M12 22C16.9706 22 21 17.9706 21 13C21 8.02944 16.9706 4 12 4C7.02944 4 3 8.02944 3 13C3 17.9706 7.02944 22 12 22ZM16.2409 16.8909C15.948 17.1838 15.4732 17.1838 15.1803 16.8909L12.1747 13.8854L8.9942 17.0659C8.7013 17.3588 8.22643 17.3588 7.93354 17.0659C7.64064 16.773 7.64064 16.2981 7.93354 16.0052L11.114 12.8247L8.10921 9.81988C7.81631 9.52699 7.81631 9.05211 8.10921 8.75922C8.4021 8.46633 8.87697 8.46633 9.16987 8.75922L12.1747 11.7641L15.0046 8.93416C15.2975 8.64127 15.7724 8.64127 16.0653 8.93416C16.3582 9.22706 16.3582 9.70193 16.0653 9.99482L13.2354 12.8247L16.2409 15.8303C16.5338 16.1232 16.5338 16.5981 16.2409 16.8909Z" fill="#2F2F2F"/>
</svg>
