<svg width="24" height="25" viewBox="0 0 24 25" fill="none" xmlns="http://www.w3.org/2000/svg">
<path fill-rule="evenodd" clip-rule="evenodd" d="M12.001 3.25269C6.75427 3.25269 2.50098 7.50598 2.50098 12.7527C2.50098 17.9994 6.75427 22.2527 12.001 22.2527C17.2477 22.2527 21.501 17.9994 21.501 12.7527C21.501 7.50598 17.2477 3.25269 12.001 3.25269ZM12.001 7.83105C12.4046 7.83105 12.7317 8.15823 12.7317 8.56182V12.022H16.142C16.5456 12.022 16.8728 12.3491 16.8728 12.7527C16.8728 13.1563 16.5456 13.4835 16.142 13.4835H12.001C11.5974 13.4835 11.2702 13.1563 11.2702 12.7527V8.56182C11.2702 8.15823 11.5974 7.83105 12.001 7.83105Z" fill="#2F2F2F"/>
</svg>
