<svg width="24" height="25" viewBox="0 0 24 25" fill="none" xmlns="http://www.w3.org/2000/svg">
<path d="M3 10.1102C3 9.94192 3.18966 9.84471 3.32485 9.94368L11.2782 15.7657C11.7085 16.0807 12.2915 16.0807 12.7218 15.7657L20.6751 9.94368C20.8103 9.84472 21 9.94192 21 10.1102V18.7647C21 19.4469 20.4505 20 19.7727 20H4.22727C3.54947 20 3 19.4469 3 18.7647V10.1102Z" fill="#2F2F2F"/>
<path d="M3 7.23529C3 6.55306 3.54947 6 4.22727 6H19.7727C20.4505 6 21 6.55306 21 7.23529V7.64706L12.4812 13.883C12.1943 14.093 11.8057 14.093 11.5188 13.883L3 7.64706V7.23529Z" fill="#2F2F2F"/>
</svg>
