<svg width="24" height="25" viewBox="0 0 24 25" fill="none" xmlns="http://www.w3.org/2000/svg">
<path fill-rule="evenodd" clip-rule="evenodd" d="M12 22.7527C17.5228 22.7527 22 18.2755 22 12.7527C22 7.22984 17.5228 2.75269 12 2.75269C6.47715 2.75269 2 7.22984 2 12.7527C2 18.2755 6.47715 22.7527 12 22.7527ZM13.25 8.50269C13.25 9.19304 12.6904 9.75269 12 9.75269C11.3096 9.75269 10.75 9.19304 10.75 8.50269C10.75 7.81233 11.3096 7.25269 12 7.25269C12.6904 7.25269 13.25 7.81233 13.25 8.50269ZM12 11.3682C12.4142 11.3682 12.75 11.704 12.75 12.1182V17.25C12.75 17.6642 12.4142 18 12 18C11.5858 18 11.25 17.6642 11.25 17.25V12.1182C11.25 11.704 11.5858 11.3682 12 11.3682Z" fill="#2F2F2F"/>
</svg>
