<svg width="40" height="40" viewBox="0 0 40 40" fill="none" xmlns="http://www.w3.org/2000/svg">
<rect width="40" height="40" rx="20" fill="#2F2F2F"/>
<path fill-rule="evenodd" clip-rule="evenodd" d="M20 11.2473C17.292 11.2473 15.0968 13.4347 15.0968 16.133V17.4187H14.8387C13.2709 17.4187 12 18.6851 12 20.2473V26.4187C12 27.9809 13.2709 29.2473 14.8387 29.2473H25.1613C26.7291 29.2473 28 27.9809 28 26.4187V20.2473C28 18.6851 26.7291 17.4187 25.1613 17.4187H24.9032V16.133C24.9032 13.4347 22.708 11.2473 20 11.2473ZM23.3548 17.4187V16.133C23.3548 14.2868 21.8528 12.7902 20 12.7902C18.1472 12.7902 16.6452 14.2868 16.6452 16.133V17.4187H23.3548Z" fill="white"/>
</svg>
