<svg width="24" height="25" viewBox="0 0 24 25" fill="none" xmlns="http://www.w3.org/2000/svg">
<path d="M11.9992 2.75269C12.441 2.75269 12.7992 3.11086 12.7992 3.55269V11.2214L15.4335 8.58707C15.746 8.27465 16.2525 8.27465 16.5649 8.58707C16.8773 8.89949 16.8773 9.40602 16.5649 9.71844L12.5649 13.7184C12.4606 13.8228 12.3346 13.8923 12.2014 13.9269C12.1834 13.9316 12.1651 13.9357 12.1465 13.9392C12.0484 13.9574 11.9475 13.9573 11.8495 13.9387C11.8318 13.9353 11.8143 13.9314 11.797 13.9269C11.6638 13.8923 11.5379 13.8228 11.4335 13.7184L7.43353 9.71844C7.12111 9.40602 7.12111 8.89949 7.43353 8.58707C7.74595 8.27465 8.25248 8.27465 8.5649 8.58707L11.1992 11.2214V3.55269C11.1992 3.11086 11.5574 2.75269 11.9992 2.75269Z" fill="#2F2F2F"/>
<path d="M5 10.7527C5.49472 10.7527 5.96583 10.9642 6.29451 11.334L10.5052 16.071C11.3008 16.966 12.6992 16.966 13.4948 16.071L17.7055 11.334C18.0342 10.9642 18.5053 10.7527 19 10.7527C20.1046 10.7527 21 11.6481 21 12.7527V20.7527C21 21.8573 20.1046 22.7527 19 22.7527H5C3.89543 22.7527 3 21.8573 3 20.7527V12.7527C3 11.6481 3.89543 10.7527 5 10.7527Z" fill="#2F2F2F"/>
</svg>
