<svg width="24" height="25" viewBox="0 0 24 25" fill="none" xmlns="http://www.w3.org/2000/svg">
<path fill-rule="evenodd" clip-rule="evenodd" d="M10.1101 7.22583C9.91318 6.88175 9.8 6.47937 9.8 6.04939C9.8 4.78095 10.785 3.75269 12 3.75269C13.215 3.75269 14.2 4.78095 14.2 6.04939C14.2 6.47937 14.0868 6.88175 13.8899 7.22583C16.0528 8.03518 17.6 10.1943 17.6 12.7307V16.6977C17.6 16.8131 17.6895 16.9065 17.8 16.9065H18.4C19.2837 16.9065 20 17.6544 20 18.5769C20 19.4994 19.2837 20.2472 18.4 20.2472H14.2C14.0895 20.2472 14 20.3407 14 20.456V20.6648C14 21.8179 13.1046 22.7527 12 22.7527C10.8954 22.7527 10 21.8179 10 20.6648V20.456C10 20.3407 9.91046 20.2472 9.8 20.2472H5.6C4.71634 20.2472 4 19.4994 4 18.5769C4 17.6544 4.71634 16.9065 5.6 16.9065H6.2C6.31046 16.9065 6.4 16.8131 6.4 16.6977V12.7307C6.4 10.1943 7.94724 8.03518 10.1101 7.22583ZM11 6.04939C11 5.47283 11.4477 5.00543 12 5.00543C12.5523 5.00543 13 5.47283 13 6.04939C13 6.40878 12.826 6.72575 12.5612 6.91355C12.3767 6.89437 12.1894 6.88455 12 6.88455C11.8106 6.88455 11.6234 6.89437 11.4388 6.91355C11.174 6.72575 11 6.40878 11 6.04939Z" fill="#2F2F2F"/>
</svg>
