<svg width="24" height="25" viewBox="0 0 24 25" fill="none" xmlns="http://www.w3.org/2000/svg">
<path fill-rule="evenodd" clip-rule="evenodd" d="M2 13C2 7.47715 6.47715 3 12 3C17.5228 3 22 7.47715 22 13C22 18.5228 17.5228 23 12 23C6.47715 23 2 18.5228 2 13ZM13.322 7.4126C12.4893 7.2045 11.6218 7.23299 10.803 7.49461C9.9884 7.75487 9.25455 8.23526 8.66568 8.88311L7.72539 9.85904V8.958C7.72539 8.55759 7.4008 8.233 7.00039 8.233C6.59998 8.233 6.27539 8.55759 6.27539 8.958V11.6564C6.27539 12.0568 6.59998 12.3814 7.00039 12.3814H9.60219C10.0026 12.3814 10.3272 12.0568 10.3272 11.6564C10.3272 11.256 10.0026 10.9314 9.60219 10.9314H8.70568L9.71746 9.8813C9.72271 9.87585 9.72787 9.87032 9.73295 9.86471C10.1596 9.39323 10.6808 9.05586 11.2443 8.87582C11.8072 8.69597 12.4001 8.67681 12.9704 8.81934C13.5412 8.96199 14.0777 9.26389 14.5271 9.70511C14.9769 10.1468 15.3241 10.7132 15.5298 11.3552C15.6519 11.7365 16.0601 11.9466 16.4414 11.8244C16.8227 11.7022 17.0328 11.2941 16.9107 10.9128C16.6365 10.0569 16.1682 9.28427 15.5429 8.67042C14.9172 8.05614 14.1541 7.62058 13.322 7.4126ZM14.399 13.6186C13.9986 13.6186 13.674 13.9431 13.674 14.3436C13.674 14.744 13.9986 15.0686 14.399 15.0686H15.2953L14.2836 16.1188C14.2784 16.1242 14.2733 16.1297 14.2682 16.1353C13.8416 16.6068 13.3204 16.9442 12.7569 17.1242C12.194 17.3041 11.601 17.3232 11.0308 17.1807C10.46 17.0381 9.92348 16.7362 9.47407 16.2949C9.02423 15.8533 8.67701 15.2868 8.47136 14.6449C8.34921 14.2636 7.94106 14.0535 7.55974 14.1756C7.17842 14.2978 6.96834 14.7059 7.09049 15.0873C7.36469 15.9431 7.83298 16.7158 8.45824 17.3296C9.08392 17.9439 9.84706 18.3795 10.6792 18.5874C11.5118 18.7955 12.3793 18.7671 13.1982 18.5054C14.0128 18.2452 14.7466 17.7648 15.3355 17.1169L16.2754 16.1412V17.2187C16.2754 17.6191 16.6 17.9437 17.0004 17.9437C17.4008 17.9437 17.7254 17.6191 17.7254 17.2187V14.3436C17.7254 13.9431 17.4008 13.6186 17.0004 13.6186H14.399Z" fill="#2F2F2F"/>
</svg>
