<svg width="24" height="25" viewBox="0 0 24 25" fill="none" xmlns="http://www.w3.org/2000/svg">
<path d="M4.72726 5.4614C4.53738 5.38 4.31737 5.41834 4.16618 5.55911C4.01496 5.69994 3.96113 5.91671 4.02885 6.11186L5.96012 11.6805C6.13691 12.1902 6.6172 12.532 7.15673 12.532L19.6829 12.5322C20.0272 12.5322 20.1241 12.0602 19.8076 11.9245L4.72726 5.4614Z" fill="#2F2F2F"/>
<path d="M7.15672 13.5756C6.61719 13.5756 6.13688 13.9174 5.9601 14.4271L4.02882 19.9958C3.96317 20.1851 4.01185 20.3947 4.15276 20.5356C4.15714 20.54 4.16157 20.5443 4.16618 20.5485C4.31737 20.6893 4.53738 20.7277 4.72728 20.6463L19.8077 14.1833C20.1242 14.0477 20.0273 13.5756 19.683 13.5756L7.15672 13.5756Z" fill="#2F2F2F"/>
</svg>
