<svg width="24" height="25" viewBox="0 0 24 25" fill="none" xmlns="http://www.w3.org/2000/svg">
<path d="M20.2057 14.6156L19.0501 13.7356C18.7714 13.5234 18.6325 13.181 18.6382 12.8308C18.6387 12.8047 18.6389 12.7784 18.6389 12.752C18.6389 12.7264 18.6387 12.701 18.6383 12.6757C18.6329 12.3241 18.7724 11.9798 19.0522 11.7668L20.2072 10.8877C20.5054 10.6582 20.5869 10.2509 20.397 9.91159L18.7284 7.10019C18.5501 6.78286 18.1595 6.61994 17.7631 6.76231L16.3695 7.30711C16.0574 7.42914 15.7075 7.38192 15.4189 7.21157C15.3564 7.17468 15.2935 7.13892 15.2301 7.10431C14.9275 6.93901 14.7022 6.65283 14.652 6.31171L14.4447 4.90436C14.3974 4.53319 14.0657 4.25269 13.6737 4.25269H10.3276C9.93557 4.25269 9.60462 4.53319 9.55805 4.89869L9.34988 6.31366C9.29973 6.6545 9.07487 6.94065 8.77302 7.10671C8.70946 7.14168 8.64594 7.17799 8.58243 7.21568C8.29604 7.38559 7.94852 7.4312 7.63839 7.30994L6.23603 6.76161C5.88029 6.62774 5.45476 6.77788 5.27801 7.09381L3.60719 9.90874C3.41008 10.2332 3.49153 10.6546 3.79633 10.8898L4.95264 11.7703C5.23095 11.9822 5.36966 12.324 5.36381 12.6738C5.36337 12.7003 5.36315 12.7266 5.36315 12.7527C5.36315 12.7791 5.36337 12.8057 5.36383 12.8326C5.36975 13.1822 5.231 13.5238 4.95274 13.7357L3.79486 14.617C3.49662 14.8472 3.41587 15.2545 3.60573 15.5931L5.27439 18.4045C5.45262 18.7211 5.83958 18.8854 6.23964 18.7424L7.63346 18.1975C7.9455 18.0755 8.2952 18.1226 8.58375 18.2929C8.64639 18.3298 8.70949 18.3657 8.773 18.4004C9.0751 18.5655 9.29975 18.8514 9.34993 19.192L9.55733 20.5996C9.60459 20.9722 9.93557 21.2527 10.3284 21.2527H13.6744C14.0665 21.2527 14.3982 20.9722 14.4447 20.6067L14.653 19.1914C14.7031 18.8511 14.9273 18.5653 15.2286 18.3995C15.2925 18.3644 15.3563 18.3279 15.4202 18.29C15.7067 18.1199 16.0543 18.0742 16.3646 18.1955L17.7667 18.7438C17.8584 18.7785 17.9537 18.7962 18.0519 18.7962C18.3341 18.7962 18.5938 18.646 18.7247 18.4123L20.4006 15.586C20.5869 15.2545 20.5054 14.8472 20.2057 14.6156ZM12.0006 15.586C10.396 15.586 9.09106 14.3153 9.09106 12.7527C9.09106 11.1901 10.396 9.91936 12.0006 9.91936C13.6053 9.91936 14.9102 11.1901 14.9102 12.7527C14.9102 14.3153 13.6053 15.586 12.0006 15.586Z" fill="#2F2F2F"/>
</svg>
