<svg width="24" height="25" viewBox="0 0 24 25" fill="none" xmlns="http://www.w3.org/2000/svg">
<path d="M19.1666 7.41931C19.1666 8.61597 18.1967 9.58606 17 9.58606C15.8033 9.58606 14.8334 8.61597 14.8334 7.41931C14.8334 6.22278 15.8033 5.25269 17 5.25269C18.1967 5.25269 19.1666 6.22278 19.1666 7.41931Z" fill="#2F2F2F"/>
<path d="M17 10.0861C15.5293 10.0861 14.3334 8.89001 14.3334 7.41931C14.3334 5.94873 15.5293 4.75269 17 4.75269C18.4707 4.75269 19.6666 5.94873 19.6666 7.41931C19.6666 8.89001 18.4707 10.0861 17 10.0861ZM17 5.75269C16.0807 5.75269 15.3334 6.50073 15.3334 7.41931C15.3334 8.33801 16.0807 9.08606 17 9.08606C17.9193 9.08606 18.6666 8.33801 18.6666 7.41931C18.6666 6.50073 17.9193 5.75269 17 5.75269Z" fill="#2F2F2F"/>
<path d="M19.1666 18.0861C19.1666 19.2826 18.1967 20.2527 17 20.2527C15.8033 20.2527 14.8334 19.2826 14.8334 18.0861C14.8334 16.8894 15.8033 15.9193 17 15.9193C18.1967 15.9193 19.1666 16.8894 19.1666 18.0861Z" fill="#2F2F2F"/>
<path d="M17 20.7527C15.5293 20.7527 14.3334 19.5566 14.3334 18.0861C14.3334 16.6154 15.5293 15.4193 17 15.4193C18.4707 15.4193 19.6666 16.6154 19.6666 18.0861C19.6666 19.5566 18.4707 20.7527 17 20.7527ZM17 16.4193C16.0807 16.4193 15.3334 17.1674 15.3334 18.0861C15.3334 19.0046 16.0807 19.7527 17 19.7527C17.9193 19.7527 18.6666 19.0046 18.6666 18.0861C18.6666 17.1674 17.9193 16.4193 17 16.4193Z" fill="#2F2F2F"/>
<path d="M9.83337 12.7527C9.83337 13.9493 8.86328 14.9193 7.66663 14.9193C6.47009 14.9193 5.5 13.9493 5.5 12.7527C5.5 11.556 6.47009 10.5861 7.66663 10.5861C8.86328 10.5861 9.83337 11.556 9.83337 12.7527Z" fill="#2F2F2F"/>
<path d="M7.66663 15.4193C6.19604 15.4193 5 14.2234 5 12.7527C5 11.282 6.19604 10.0861 7.66663 10.0861C9.13733 10.0861 10.3334 11.282 10.3334 12.7527C10.3334 14.2234 9.13733 15.4193 7.66663 15.4193ZM7.66663 11.0861C6.74731 11.0861 6 11.834 6 12.7527C6 13.6714 6.74731 14.4193 7.66663 14.4193C8.58606 14.4193 9.33337 13.6714 9.33337 12.7527C9.33337 11.834 8.58606 11.0861 7.66663 11.0861Z" fill="#2F2F2F"/>
<path d="M9.24072 12.4327C9.00867 12.4327 8.78333 12.312 8.66064 12.0961C8.47864 11.7767 8.5907 11.3694 8.91003 11.1866L15.0959 7.66003C15.4153 7.47668 15.8226 7.58875 16.0054 7.9093C16.1874 8.22864 16.0753 8.63599 15.756 8.81873L9.56995 12.3453C9.46594 12.4047 9.35266 12.4327 9.24072 12.4327Z" fill="#2F2F2F"/>
<path d="M15.426 17.9327C15.314 17.9327 15.2007 17.9047 15.0967 17.8453L8.91064 14.3187C8.59131 14.1367 8.47937 13.7294 8.66138 13.4093C8.84265 13.0894 9.25061 12.9767 9.57068 13.16L15.7567 16.6866C16.076 16.8687 16.188 17.276 16.006 17.5961C15.8827 17.812 15.6573 17.9327 15.426 17.9327Z" fill="#2F2F2F"/>
</svg>
