<svg width="24" height="25" viewBox="0 0 24 25" fill="none" xmlns="http://www.w3.org/2000/svg">
<path fill-rule="evenodd" clip-rule="evenodd" d="M2 12.7527C2 11.6481 2.89543 10.7527 4 10.7527C5.10457 10.7527 6 11.6481 6 12.7527C6 13.8573 5.10457 14.7527 4 14.7527C2.89543 14.7527 2 13.8573 2 12.7527Z" fill="black"/>
<path fill-rule="evenodd" clip-rule="evenodd" d="M10 12.7527C10 11.6481 10.8954 10.7527 12 10.7527C13.1046 10.7527 14 11.6481 14 12.7527C14 13.8573 13.1046 14.7527 12 14.7527C10.8954 14.7527 10 13.8573 10 12.7527Z" fill="black"/>
<path fill-rule="evenodd" clip-rule="evenodd" d="M18 12.7527C18 11.6481 18.8954 10.7527 20 10.7527C21.1046 10.7527 22 11.6481 22 12.7527C22 13.8573 21.1046 14.7527 20 14.7527C18.8954 14.7527 18 13.8573 18 12.7527Z" fill="black"/>
</svg>
