<svg width="14" height="14" viewBox="0 0 14 14" fill="none" xmlns="http://www.w3.org/2000/svg">
<path fill-rule="evenodd" clip-rule="evenodd" d="M6.81299 0.874622C6.9039 0.745569 7.09523 0.745568 7.18614 0.874622L8.13036 2.21499C8.19386 2.30513 8.31273 2.33698 8.4128 2.29067L9.9007 1.60199C10.044 1.53568 10.2097 1.63134 10.2239 1.78856L10.3714 3.42146C10.3813 3.53128 10.4683 3.6183 10.5782 3.62822L12.2111 3.77576C12.3683 3.78996 12.4639 3.95566 12.3976 4.09892L11.709 5.58682C11.6626 5.68689 11.6945 5.80576 11.7846 5.86926L13.125 6.81348C13.2541 6.90439 13.2541 7.09572 13.125 7.18663L11.7846 8.13085C11.6945 8.19435 11.6626 8.31322 11.709 8.41329L12.3976 9.90119C12.4639 10.0444 12.3683 10.2101 12.2111 10.2244L10.5782 10.3719C10.4683 10.3818 10.3813 10.4688 10.3714 10.5786L10.2239 12.2115C10.2097 12.3688 10.044 12.4644 9.9007 12.3981L8.4128 11.7094C8.31273 11.6631 8.19386 11.695 8.13036 11.7851L7.18614 13.1255C7.09523 13.2545 6.9039 13.2545 6.81299 13.1255L5.86877 11.7851C5.80527 11.695 5.6864 11.6631 5.58633 11.7094L4.09843 12.3981C3.95517 12.4644 3.78947 12.3688 3.77527 12.2115L3.62774 10.5786C3.61781 10.4688 3.53079 10.3818 3.42097 10.3719L1.78808 10.2244C1.63086 10.2101 1.53519 10.0444 1.6015 9.90119L2.29018 8.41329C2.3365 8.31322 2.30464 8.19435 2.2145 8.13085L0.874134 7.18663C0.745081 7.09572 0.74508 6.90439 0.874134 6.81348L2.2145 5.86926C2.30464 5.80576 2.3365 5.68689 2.29018 5.58682L1.6015 4.09892C1.53519 3.95566 1.63086 3.78996 1.78808 3.77576L3.42097 3.62822C3.53079 3.6183 3.61781 3.53128 3.62774 3.42146L3.77527 1.78856C3.78947 1.63134 3.95517 1.53568 4.09843 1.60199L5.58633 2.29067C5.6864 2.33698 5.80527 2.30513 5.86877 2.21499L6.81299 0.874622ZM6.99935 3.83154C6.63116 3.83154 6.33268 4.13002 6.33268 4.49821V6.83154C6.33268 7.19973 6.63116 7.49821 6.99935 7.49821C7.36754 7.49821 7.66602 7.19973 7.66602 6.83154V4.49821C7.66602 4.13002 7.36754 3.83154 6.99935 3.83154ZM6.16602 9.33333C6.16602 8.8731 6.53911 8.5 6.99935 8.5C7.45959 8.5 7.83268 8.8731 7.83268 9.33333C7.83268 9.79357 7.45959 10.1667 6.99935 10.1667C6.53911 10.1667 6.16602 9.79357 6.16602 9.33333Z" fill="#F64358"/>
</svg>
