<svg width="24" height="25" viewBox="0 0 24 25" fill="none" xmlns="http://www.w3.org/2000/svg">
<path fill-rule="evenodd" clip-rule="evenodd" d="M12.2802 3.56462C12.1438 3.37104 11.8568 3.37104 11.7205 3.56462L10.3041 5.57517C10.2089 5.71038 10.0306 5.75816 9.88047 5.68869L7.64862 4.65566C7.43374 4.5562 7.18519 4.6997 7.16388 4.93553L6.94258 7.38488C6.9277 7.54961 6.79717 7.68014 6.63244 7.69502L4.18309 7.91632C3.94726 7.93763 3.80376 8.18618 3.90322 8.40107L4.93625 10.6329C5.00572 10.783 4.95794 10.9613 4.82272 11.0566L2.81218 12.4729C2.6186 12.6093 2.6186 12.8963 2.81218 13.0326L4.82272 14.449C4.95794 14.5442 5.00572 14.7225 4.93625 14.8726L3.90322 17.1045C3.80376 17.3194 3.94726 17.5679 4.18309 17.5892L6.63244 17.8105C6.79717 17.8254 6.9277 17.9559 6.94258 18.1207L7.16388 20.57C7.18519 20.8058 7.43374 20.9493 7.64862 20.8499L9.88047 19.8168C10.0306 19.7474 10.2089 19.7952 10.3041 19.9304L11.7205 21.9409C11.8568 22.1345 12.1438 22.1345 12.2802 21.9409L13.6965 19.9304C13.7918 19.7951 13.9701 19.7474 14.1202 19.8168L16.352 20.8499C16.5669 20.9493 16.8155 20.8058 16.8368 20.57L17.0581 18.1207C17.073 17.9559 17.2035 17.8254 17.3682 17.8105L19.8176 17.5892C20.0534 17.5679 20.1969 17.3194 20.0974 17.1045L19.0644 14.8726C18.9949 14.7225 19.0427 14.5442 19.1779 14.449L21.1885 13.0326C21.3821 12.8963 21.3821 12.6093 21.1885 12.4729L19.1779 11.0566C19.0427 10.9613 18.9949 10.783 19.0644 10.6329L20.0974 8.40107C20.1969 8.18618 20.0534 7.93763 19.8176 7.91632L17.3682 7.69502C17.2035 7.68014 17.073 7.54961 17.0581 7.38488L16.8368 4.93553C16.8155 4.6997 16.5669 4.5562 16.352 4.65566L14.1202 5.68869C13.9701 5.75816 13.7918 5.71038 13.6965 5.57517L12.2802 3.56462ZM15.8219 11.6839C16.2038 11.3019 16.2038 10.6826 15.8219 10.3006C15.4399 9.91867 14.8206 9.91867 14.4386 10.3006L11.1467 13.5926L9.56198 12.0079C9.18001 11.6259 8.56071 11.6259 8.17873 12.0079C7.79676 12.3899 7.79676 13.0092 8.17873 13.3911L10.4551 15.6674C10.837 16.0494 11.4563 16.0494 11.8383 15.6674L15.8219 11.6839Z" fill="#2F2F2F"/>
</svg>
