<svg width="20" height="20" viewBox="0 0 20 20" fill="none" xmlns="http://www.w3.org/2000/svg">
<path fill-rule="evenodd" clip-rule="evenodd" d="M10 0.5C4.75329 0.5 0.5 4.75329 0.5 10C0.5 15.2467 4.75329 19.5 10 19.5C15.2467 19.5 19.5 15.2467 19.5 10C19.5 4.75329 15.2467 0.5 10 0.5ZM10 5.07837C10.4036 5.07837 10.7308 5.40554 10.7308 5.80914V9.26928H14.141C14.5446 9.26928 14.8718 9.59646 14.8718 10.0001C14.8718 10.4036 14.5446 10.7308 14.141 10.7308H10C9.59641 10.7308 9.26923 10.4036 9.26923 10.0001V5.80914C9.26923 5.40554 9.59641 5.07837 10 5.07837Z" fill="#F89017"/>
</svg>
